<svg width="1005" height="81" viewBox="0 0 1005 81" fill="none" xmlns="http://www.w3.org/2000/svg">
<path d="M31.2001 69.6972C25.0561 69.6972 19.6161 68.5772 14.8801 66.3372C10.2081 64.0332 6.56005 60.3532 3.93605 55.2972C1.31205 50.2412 5.38826e-05 43.5532 5.38826e-05 35.2332V33.4092C5.38826e-05 27.5212 0.800054 22.4652 2.40005 18.2412C4.00005 14.0172 6.20805 10.5612 9.02406 7.87321C11.9041 5.18521 15.2321 3.20122 19.0081 1.92122C22.7841 0.641214 26.8481 0.00121307 31.2001 0.00121307C35.1041 0.00121307 38.7841 0.449213 42.2401 1.34521C45.6961 2.24121 48.7041 3.64921 51.2641 5.56922C53.8881 7.48922 56.0001 9.98522 57.6001 13.0572C59.2001 16.1292 60.1601 19.8732 60.4801 24.2892H42.5281C41.9521 20.7692 40.6081 18.2412 38.4961 16.7052C36.3841 15.1692 33.9521 14.4012 31.2001 14.4012C28.6401 14.4012 26.3361 15.0412 24.2881 16.3212C22.3041 17.5372 20.7361 19.5212 19.5841 22.2732C18.4321 25.0252 17.8561 28.7372 17.8561 33.4092V35.4252C17.8561 39.1372 18.2081 42.2732 18.9121 44.8332C19.6161 47.3932 20.5761 49.4412 21.7921 50.9772C23.0721 52.5132 24.5121 53.6332 26.1121 54.3372C27.7121 54.9772 29.4081 55.2972 31.2001 55.2972C34.4641 55.2972 37.0561 54.5292 38.9761 52.9932C40.9601 51.3932 42.1441 48.8652 42.5281 45.4092H60.4801C60.2241 49.8892 59.2961 53.6972 57.6961 56.8332C56.1601 59.9052 54.0801 62.4012 51.4561 64.3212C48.8961 66.1772 45.8881 67.5532 42.4321 68.4492C38.9761 69.2812 35.2321 69.6972 31.2001 69.6972ZM85.2826 68.4492V15.4572H64.6426V1.24921H123.203V15.4572H102.563V68.4492H85.2826ZM132.36 68.4492V1.24921H149.64V41.5692L176.04 1.24921H191.88V68.4492H174.6V28.1292L148.2 68.4492H132.36ZM205.778 69.6972C205.266 69.6972 204.53 69.6652 203.57 69.6012C202.674 69.6012 201.97 69.5372 201.458 69.4092V54.2412C201.65 54.3052 202.13 54.3372 202.898 54.3372C204.178 54.3372 205.266 54.1772 206.162 53.8572C207.122 53.4732 207.922 52.7052 208.562 51.5532C209.202 50.3372 209.746 48.5772 210.194 46.2732C210.706 43.9692 211.058 40.8972 211.25 37.0572C211.442 33.1532 211.538 28.2572 211.538 22.3692V1.24921H262.418V68.4492H245.042V15.3612H227.666V24.2892C227.666 32.2892 227.346 39.0092 226.706 44.4492C226.066 49.8252 225.106 54.1772 223.826 57.5052C222.61 60.8332 221.106 63.3932 219.314 65.1852C217.522 66.9132 215.474 68.0972 213.17 68.7372C210.93 69.3772 208.466 69.6972 205.778 69.6972ZM276.195 68.4492V1.24921H293.475V23.5212H303.555C312.899 23.5212 319.779 25.5372 324.195 29.5692C328.675 33.6012 330.915 39.0732 330.915 45.9852C330.915 52.8972 328.675 58.3692 324.195 62.4012C319.779 66.4332 312.899 68.4492 303.555 68.4492H276.195ZM293.475 54.2412H301.635C305.667 54.2412 308.579 53.4732 310.371 51.9372C312.163 50.4012 313.059 48.4172 313.059 45.9852C313.059 43.5532 312.163 41.5692 310.371 40.0332C308.579 38.4972 305.667 37.7292 301.635 37.7292H293.475V54.2412ZM340.988 68.4492V1.24921H358.268V26.7852H383.228V1.24921H400.508V68.4492H383.228V40.9932H358.268V68.4492H340.988ZM444.645 69.6972C440.229 69.6972 436.037 69.0572 432.069 67.7772C428.165 66.4972 424.709 64.4812 421.701 61.7292C418.693 58.9772 416.325 55.4252 414.597 51.0732C412.869 46.6572 412.005 41.4092 412.005 35.3292V33.4092C412.005 27.5212 412.869 22.4652 414.597 18.2412C416.325 14.0172 418.693 10.5612 421.701 7.87321C424.709 5.18521 428.165 3.20122 432.069 1.92122C436.037 0.641214 440.229 0.00121307 444.645 0.00121307C449.125 0.00121307 453.317 0.641214 457.221 1.92122C461.125 3.20122 464.581 5.18521 467.589 7.87321C470.597 10.5612 472.965 14.0172 474.693 18.2412C476.421 22.4652 477.285 27.5212 477.285 33.4092V35.3292C477.285 41.4092 476.421 46.6572 474.693 51.0732C472.965 55.4252 470.597 58.9772 467.589 61.7292C464.581 64.4812 461.125 66.4972 457.221 67.7772C453.317 69.0572 449.125 69.6972 444.645 69.6972ZM444.549 55.2972C447.173 55.2972 449.605 54.7212 451.845 53.5692C454.085 52.3532 455.877 50.3372 457.221 47.5212C458.629 44.6412 459.333 40.5772 459.333 35.3292V33.4092C459.333 28.4172 458.629 24.5452 457.221 21.7932C455.877 19.0412 454.085 17.1212 451.845 16.0332C449.605 14.9452 447.173 14.4012 444.549 14.4012C442.053 14.4012 439.685 14.9452 437.445 16.0332C435.205 17.1212 433.381 19.0412 431.973 21.7932C430.565 24.5452 429.861 28.4172 429.861 33.4092V35.3292C429.861 40.5772 430.565 44.6412 431.973 47.5212C433.381 50.3372 435.205 52.3532 437.445 53.5692C439.685 54.7212 442.053 55.2972 444.549 55.2972ZM508.92 48.6732V34.4652H574.2V48.6732H508.92ZM608.325 68.4492V1.24921H625.989L644.613 35.3292L663.045 1.24921H680.325V68.4492H663.045V29.9532L649.125 55.4892H639.525L625.605 29.9532V68.4492H608.325ZM724.451 69.6972C720.035 69.6972 715.843 69.0572 711.875 67.7772C707.971 66.4972 704.515 64.4812 701.507 61.7292C698.499 58.9772 696.131 55.4252 694.403 51.0732C692.675 46.6572 691.811 41.4092 691.811 35.3292V33.4092C691.811 27.5212 692.675 22.4652 694.403 18.2412C696.131 14.0172 698.499 10.5612 701.507 7.87321C704.515 5.18521 707.971 3.20122 711.875 1.92122C715.843 0.641214 720.035 0.00121307 724.451 0.00121307C728.931 0.00121307 733.123 0.641214 737.027 1.92122C740.931 3.20122 744.387 5.18521 747.395 7.87321C750.403 10.5612 752.771 14.0172 754.499 18.2412C756.227 22.4652 757.091 27.5212 757.091 33.4092V35.3292C757.091 41.4092 756.227 46.6572 754.499 51.0732C752.771 55.4252 750.403 58.9772 747.395 61.7292C744.387 64.4812 740.931 66.4972 737.027 67.7772C733.123 69.0572 728.931 69.6972 724.451 69.6972ZM724.355 55.2972C726.979 55.2972 729.411 54.7212 731.651 53.5692C733.891 52.3532 735.683 50.3372 737.027 47.5212C738.435 44.6412 739.139 40.5772 739.139 35.3292V33.4092C739.139 28.4172 738.435 24.5452 737.027 21.7932C735.683 19.0412 733.891 17.1212 731.651 16.0332C729.411 14.9452 726.979 14.4012 724.355 14.4012C721.859 14.4012 719.491 14.9452 717.251 16.0332C715.011 17.1212 713.187 19.0412 711.779 21.7932C710.371 24.5452 709.667 28.4172 709.667 33.4092V35.3292C709.667 40.5772 710.371 44.6412 711.779 47.5212C713.187 50.3372 715.011 52.3532 717.251 53.5692C719.491 54.7212 721.859 55.2972 724.355 55.2972ZM768.566 68.4492V1.24921H785.846V54.2412H801.206V1.24921H818.486V54.2412H833.846V1.24921H851.126V54.2412H858.806V80.9292H843.83V68.4492H768.566ZM868.421 68.4492V1.24921H885.701V26.7852H910.661V1.24921H927.941V68.4492H910.661V40.9932H885.701V68.4492H868.421ZM972.079 69.6972C967.663 69.6972 963.471 69.0572 959.503 67.7772C955.599 66.4972 952.143 64.4812 949.135 61.7292C946.127 58.9772 943.759 55.4252 942.031 51.0732C940.303 46.6572 939.439 41.4092 939.439 35.3292V33.4092C939.439 27.5212 940.303 22.4652 942.031 18.2412C943.759 14.0172 946.127 10.5612 949.135 7.87321C952.143 5.18521 955.599 3.20122 959.503 1.92122C963.471 0.641214 967.663 0.00121307 972.079 0.00121307C976.559 0.00121307 980.751 0.641214 984.655 1.92122C988.559 3.20122 992.015 5.18521 995.023 7.87321C998.031 10.5612 1000.4 14.0172 1002.13 18.2412C1003.85 22.4652 1004.72 27.5212 1004.72 33.4092V35.3292C1004.72 41.4092 1003.85 46.6572 1002.13 51.0732C1000.4 55.4252 998.031 58.9772 995.023 61.7292C992.015 64.4812 988.559 66.4972 984.655 67.7772C980.751 69.0572 976.559 69.6972 972.079 69.6972ZM971.983 55.2972C974.607 55.2972 977.039 54.7212 979.279 53.5692C981.519 52.3532 983.311 50.3372 984.655 47.5212C986.063 44.6412 986.767 40.5772 986.767 35.3292V33.4092C986.767 28.4172 986.063 24.5452 984.655 21.7932C983.311 19.0412 981.519 17.1212 979.279 16.0332C977.039 14.9452 974.607 14.4012 971.983 14.4012C969.487 14.4012 967.119 14.9452 964.879 16.0332C962.639 17.1212 960.815 19.0412 959.407 21.7932C957.999 24.5452 957.295 28.4172 957.295 33.4092V35.3292C957.295 40.5772 957.999 44.6412 959.407 47.5212C960.815 50.3372 962.639 52.3532 964.879 53.5692C967.119 54.7212 969.487 55.2972 971.983 55.2972Z" fill="#242424"/>
</svg>
