<?xml version="1.0" encoding="UTF-8" standalone="no"?>
<!-- Created with Inkscape (http://www.inkscape.org/) -->

<svg
   width="1014"
   height="96"
   viewBox="0 0 268.28749 25.4"
   version="1.1"
   id="svg1"
   inkscape:version="1.4.2 (f4327f4, 2025-05-13)"
   sodipodi:docname="javascript.svg"
   xmlns:inkscape="http://www.inkscape.org/namespaces/inkscape"
   xmlns:sodipodi="http://sodipodi.sourceforge.net/DTD/sodipodi-0.dtd"
   xmlns="http://www.w3.org/2000/svg"
   xmlns:svg="http://www.w3.org/2000/svg">
  <sodipodi:namedview
     id="namedview1"
     pagecolor="#ffffff"
     bordercolor="#000000"
     borderopacity="0.25"
     inkscape:showpageshadow="2"
     inkscape:pageopacity="0.0"
     inkscape:pagecheckerboard="0"
     inkscape:deskcolor="#d1d1d1"
     inkscape:document-units="mm"
     inkscape:zoom="1.4520903"
     inkscape:cx="731.35946"
     inkscape:cy="217.96165"
     inkscape:window-width="1920"
     inkscape:window-height="1017"
     inkscape:window-x="-8"
     inkscape:window-y="-8"
     inkscape:window-maximized="1"
     inkscape:current-layer="layer1" />
  <defs
     id="defs1" />
  <g
     inkscape:label="Слой 1"
     inkscape:groupmode="layer"
     id="layer1">
    <path
       d="m 129.05879,10.048999 v 3.75946 h 17.27181 v -3.75946 z"
       style="font-weight:bold;font-size:25.4px;font-family:Golos;-inkscape-font-specification:'Golos Bold';stroke-width:0.264583"
       id="path65" />
    <path
       d="M 210.46571,5.5789876 V 19.040698 h 3.91139 v -5.25756 h 5.13095 v 5.25756 h 3.91139 V 5.5789876 h -3.91139 V 10.582817 H 214.3771 V 5.5789876 Z"
       style="font-weight:bold;font-size:25.4px;font-family:Golos;-inkscape-font-specification:'Golos Bold';stroke-width:0.264583"
       id="path61" />
    <path
       d="M 188.11358,5.5789876 V 19.040698 h 17.27233 v 3.175 h 3.30161 v -6.375321 h -1.77767 V 5.5789876 h -3.9119 V 15.840377 h -3.53054 V 5.5789876 h -3.91139 V 15.840377 h -3.53053 V 5.5789876 Z"
       style="font-weight:bold;font-size:25.4px;font-family:Golos;-inkscape-font-specification:'Golos Bold';stroke-width:0.264583"
       id="path60" />
    <path
       d="M 154.58591,5.5789876 V 19.040698 h 3.7083 v -8.254793 l 2.89543,5.714897 h 2.5399 l 2.89595,-5.714897 v 8.254793 h 3.7083 V 5.5789876 h -4.59765 L 162.53582,12.2592 159.33549,5.5789876 Z"
       style="font-weight:bold;font-size:25.4px;font-family:Golos;-inkscape-font-specification:'Golos Bold';stroke-width:0.264583"
       id="path59" />
    <path
       d="M 92.609851,5.5789876 V 19.040698 h 3.911389 v -5.25756 h 5.13095 v 5.25756 h 3.91139 V 5.5789876 h -3.91139 V 10.582817 H 96.52124 V 5.5789876 Z"
       style="font-weight:bold;font-size:25.4px;font-family:Golos;-inkscape-font-specification:'Golos Bold';stroke-width:0.264583"
       id="path58" />
    <path
       d="M 78.893892,5.5789876 V 19.040698 h 6.603732 c 0.9652,0 1.778211,-0.110079 2.438611,-0.330212 0.677333,-0.220133 1.227728,-0.52469 1.651062,-0.914156 0.440266,-0.4064 0.75321,-0.889174 0.939477,-1.447974 0.2032,-0.5588 0.304891,-1.176817 0.304891,-1.85415 0,-1.540934 -0.448704,-2.684182 -1.346171,-3.429248 C 88.588027,10.319891 87.25869,9.9477132 85.497624,9.9477132 H 82.805282 V 5.5789876 Z m 3.91139,7.3147994 h 2.184362 c 0.694267,0 1.185429,0.127372 1.473295,0.381372 0.3048,0.254 0.457337,0.660247 0.457337,1.219047 0,0.541866 -0.152537,0.948113 -0.457337,1.219047 -0.287866,0.254 -0.779028,0.381372 -1.473295,0.381372 h -2.184362 z"
       style="font-weight:bold;font-size:25.4px;font-family:Golos;-inkscape-font-specification:'Golos Bold';stroke-width:0.264583"
       id="path57" />
    <path
       d="m 64.923686,5.5789876 v 5.0797934 c 0,0.982133 -0.04246,1.81192 -0.127124,2.489254 -0.06773,0.6604 -0.177813,1.202407 -0.330213,1.62574 -0.1524,0.4064 -0.338489,0.702568 -0.558622,0.888835 -0.220133,0.169333 -0.474361,0.253731 -0.762227,0.253731 -0.169334,0 -0.296189,-0.0084 -0.380856,-0.02532 v 3.403926 c 0.135467,0.03387 0.322073,0.05064 0.559139,0.05064 0.254,0.01693 0.448477,0.02532 0.583944,0.02532 0.762,0 1.430863,-0.110079 2.006596,-0.330213 0.592667,-0.220133 1.083828,-0.634768 1.473295,-1.244368 0.389467,-0.6096 0.685635,-1.447775 0.888835,-2.514575 0.2032,-1.0668 0.304891,-2.438595 0.304891,-4.114995 V 8.7793091 h 3.607015 V 19.040698 h 3.911389 V 5.5789876 Z"
       style="font-weight:bold;font-size:25.4px;font-family:Golos;-inkscape-font-specification:'Golos Bold';stroke-width:0.264583"
       id="path56" />
    <path
       d="M 48.032727,5.5789876 V 19.040698 h 3.429248 l 5.714897,-8.127669 v 8.127669 h 3.810103 V 5.5789876 H 57.557727 L 51.84283,13.706657 V 5.5789876 Z"
       style="font-weight:bold;font-size:25.4px;font-family:Golos;-inkscape-font-specification:'Golos Bold';stroke-width:0.264583"
       id="path55" />
    <path
       d="m 34.06252,5.5789876 v 3.2003215 h 4.140316 V 19.040698 h 3.911906 V 8.7793091 h 4.139799 V 5.5789876 Z"
       style="font-weight:bold;font-size:25.4px;font-family:Golos;-inkscape-font-specification:'Golos Bold';stroke-width:0.264583"
       id="path54" />
    <path
       d="m 232.30985,5.2487752 c -0.94827,0 -1.83729,0.1436316 -2.66702,0.4314982 -0.82973,0.2878667 -1.55783,0.7114067 -2.18436,1.2702067 -0.62654,0.5588 -1.1177,1.2528269 -1.4733,2.0825603 -0.3556,0.8297336 -0.5333,1.7952816 -0.5333,2.8959476 v 0.507979 c 0,1.1684 0.1777,2.192664 0.5333,3.073197 0.3556,0.8636 0.84676,1.583308 1.4733,2.159042 0.62653,0.575733 1.35463,1.007661 2.18436,1.295528 0.82973,0.270933 1.71875,0.406177 2.66702,0.406177 0.94827,0 1.83729,-0.143632 2.66702,-0.431499 0.82974,-0.287866 1.55783,-0.719794 2.18436,-1.295528 0.62654,-0.575733 1.1177,-1.295441 1.4733,-2.159041 0.3556,-0.880533 0.5333,-1.896409 0.5333,-3.047876 v -0.507979 c 0,-1.100666 -0.1777,-2.066214 -0.5333,-2.8959476 -0.3556,-0.8297334 -0.84676,-1.5237603 -1.4733,-2.0825603 -0.62653,-0.5588 -1.35462,-0.98234 -2.18436,-1.2702067 -0.82973,-0.2878666 -1.71875,-0.4314982 -2.66702,-0.4314982 z m 0,3.2509644 c 0.9144,0 1.61682,0.3218491 2.10788,0.9653157 0.49107,0.6265337 0.73691,1.4479327 0.73691,2.4639327 v 0.507979 c 0,1.134533 -0.24584,2.031942 -0.73691,2.692342 -0.49106,0.6604 -1.19348,0.990637 -2.10788,0.990637 -0.9144,0 -1.61733,-0.321849 -2.1084,-0.965315 -0.49106,-0.643467 -0.73639,-1.549264 -0.73639,-2.717664 v -0.507979 c 0,-1.016 0.24533,-1.837399 0.73639,-2.4639327 0.49107,-0.6434666 1.194,-0.9653157 2.1084,-0.9653157 z M 129.05879,10.048999 h 17.27181 v 3.75946 h -17.27181 z"
       style="font-weight:bold;font-size:25.4px;font-family:Golos;-inkscape-font-specification:'Golos Bold';stroke-width:0.264583"
       id="path53" />
    <path
       d="m 179.22369,5.2487752 c -0.94827,0 -1.83729,0.1436316 -2.66702,0.4314982 -0.82974,0.2878667 -1.55783,0.7114067 -2.18437,1.2702067 -0.62653,0.5588 -1.11769,1.2528269 -1.47329,2.0825603 -0.3556,0.8297336 -0.5333,1.7952816 -0.5333,2.8959476 v 0.507979 c 0,1.1684 0.1777,2.192664 0.5333,3.073197 0.3556,0.8636 0.84676,1.583308 1.47329,2.159042 0.62654,0.575733 1.35463,1.007661 2.18437,1.295528 0.82973,0.270933 1.71875,0.406177 2.66702,0.406177 0.94826,0 1.83728,-0.143632 2.66702,-0.431499 0.82973,-0.287866 1.55783,-0.719794 2.18436,-1.295528 0.62653,-0.575733 1.11769,-1.295441 1.47329,-2.159041 0.3556,-0.880533 0.53331,-1.896409 0.53331,-3.047876 v -0.507979 c 0,-1.100666 -0.17771,-2.066214 -0.53331,-2.8959476 -0.3556,-0.8297334 -0.84676,-1.5237603 -1.47329,-2.0825603 -0.62653,-0.5588 -1.35463,-0.98234 -2.18436,-1.2702067 -0.82974,-0.2878666 -1.71876,-0.4314982 -2.66702,-0.4314982 z m 0,3.2509644 c 0.9144,0 1.61733,0.3218491 2.10839,0.9653157 0.49107,0.6265337 0.73639,1.4479327 0.73639,2.4639327 v 0.507979 c 0,1.134533 -0.24532,2.031942 -0.73639,2.692342 -0.49106,0.6604 -1.19399,0.990637 -2.10839,0.990637 -0.9144,0 -1.61734,-0.321849 -2.1084,-0.965315 -0.49107,-0.643467 -0.73639,-1.549264 -0.73639,-2.717664 v -0.507979 c 0,-1.016 0.24532,-1.837399 0.73639,-2.4639327 0.49106,-0.6434666 1.194,-0.9653157 2.1084,-0.9653157 z"
       style="font-weight:bold;font-size:25.4px;font-family:Golos;-inkscape-font-specification:'Golos Bold';stroke-width:0.264583"
       id="path52" />
    <path
       d="m 114.45348,5.2487752 c -0.94827,0 -1.83677,0.1436316 -2.6665,0.4314982 -0.82974,0.2878667 -1.55835,0.7114067 -2.18488,1.2702067 -0.62654,0.5588 -1.11718,1.2528269 -1.47278,2.0825603 -0.3556,0.8297336 -0.53382,1.7952816 -0.53382,2.8959476 v 0.507979 c 0,1.1684 0.17822,2.192664 0.53382,3.073197 0.3556,0.8636 0.84624,1.583308 1.47278,2.159042 0.62653,0.575733 1.35514,1.007661 2.18488,1.295528 0.82973,0.270933 1.71823,0.406177 2.6665,0.406177 0.94827,0 1.83729,-0.143632 2.66702,-0.431499 0.82973,-0.287866 1.55783,-0.719794 2.18436,-1.295528 0.62654,-0.575733 1.1177,-1.295441 1.4733,-2.159041 0.3556,-0.880533 0.53382,-1.896409 0.53382,-3.047876 v -0.507979 c 0,-1.100666 -0.17822,-2.066214 -0.53382,-2.8959476 -0.3556,-0.8297334 -0.84676,-1.5237603 -1.4733,-2.0825603 -0.62653,-0.5588 -1.35463,-0.98234 -2.18436,-1.2702067 -0.82973,-0.2878666 -1.71875,-0.4314982 -2.66702,-0.4314982 z m 0,3.2509644 c 0.9144,0 1.61733,0.3218491 2.1084,0.9653157 0.49106,0.6265337 0.73639,1.4479327 0.73639,2.4639327 v 0.507979 c 0,1.134533 -0.24533,2.031942 -0.73639,2.692342 -0.49107,0.6604 -1.194,0.990637 -2.1084,0.990637 -0.9144,0 -1.61682,-0.321849 -2.10788,-0.965315 -0.49107,-0.643467 -0.73691,-1.549264 -0.73691,-2.717664 v -0.507979 c 0,-1.016 0.24584,-1.837399 0.73691,-2.4639327 0.49106,-0.6434666 1.19348,-0.9653157 2.10788,-0.9653157 z"
       style="font-weight:bold;font-size:25.4px;font-family:Golos;-inkscape-font-specification:'Golos Bold';stroke-width:0.264583"
       id="path51" />
    <path
       d="m 26.569438,5.2487752 c -0.948267,0 -1.836771,0.1520197 -2.666504,0.4568197 -0.829734,0.2878667 -1.558346,0.7197948 -2.18488,1.2955281 -0.6096,0.5588 -1.100245,1.2533437 -1.472778,2.083077 -0.3556,0.8297337 -0.533818,1.777988 -0.533818,2.844788 v 0.507979 c 0,1.1684 0.169313,2.184276 0.50798,3.047876 0.338666,0.8636 0.813052,1.583308 1.422652,2.159041 0.6096,0.575734 1.329308,1.007662 2.159041,1.295528 0.846667,0.287867 1.76924,0.431499 2.768307,0.431499 0.931333,0 1.770025,-0.118468 2.515092,-0.355534 0.762,-0.254 1.413569,-0.601014 1.955436,-1.04128 0.5588,-0.440267 0.999116,-0.973886 1.320849,-1.600419 0.321734,-0.643467 0.507823,-1.363175 0.558623,-2.159042 h -4.013192 c -0.135467,0.626534 -0.414858,1.100919 -0.838192,1.422652 -0.4064,0.3048 -0.90595,0.457337 -1.498616,0.457337 -0.8636,0 -1.557627,-0.296685 -2.082561,-0.889352 -0.508,-0.592666 -0.762227,-1.515239 -0.762227,-2.768306 v -0.507979 c 0,-1.151466 0.262616,-2.0069349 0.787549,-2.5657352 0.541867,-0.5757334 1.227505,-0.8635132 2.057239,-0.8635132 0.694266,0 1.219497,0.1693126 1.575097,0.5079793 0.372534,0.3217333 0.626244,0.7877304 0.761711,1.3973311 h 4.013192 C 32.868638,9.6938493 32.699325,9.0244703 32.411458,8.397937 32.123592,7.7714037 31.717345,7.2299131 31.192411,6.7727132 30.667478,6.2985799 30.015392,5.9258853 29.236458,5.654952 c -0.762,-0.2709333 -1.65102,-0.4061768 -2.66702,-0.4061768 z"
       style="font-weight:bold;font-size:25.4px;font-family:Golos;-inkscape-font-specification:'Golos Bold';stroke-width:0.264583"
       id="path50" />
  </g>
</svg>
