<?xml version="1.0" encoding="UTF-8" standalone="no"?>
<!-- Created with Inkscape (http://www.inkscape.org/) -->

<svg
   width="1014"
   height="96"
   viewBox="0 0 268.28749 25.4"
   version="1.1"
   id="svg1"
   inkscape:version="1.4.2 (f4327f4, 2025-05-13)"
   sodipodi:docname="javascript4.svg"
   xmlns:inkscape="http://www.inkscape.org/namespaces/inkscape"
   xmlns:sodipodi="http://sodipodi.sourceforge.net/DTD/sodipodi-0.dtd"
   xmlns="http://www.w3.org/2000/svg"
   xmlns:svg="http://www.w3.org/2000/svg">
  <sodipodi:namedview
     id="namedview1"
     pagecolor="#ffffff"
     bordercolor="#000000"
     borderopacity="0.25"
     inkscape:showpageshadow="2"
     inkscape:pageopacity="0.0"
     inkscape:pagecheckerboard="0"
     inkscape:deskcolor="#d1d1d1"
     inkscape:document-units="mm"
     inkscape:zoom="2.0535659"
     inkscape:cx="496.697"
     inkscape:cy="87.408933"
     inkscape:window-width="1920"
     inkscape:window-height="1017"
     inkscape:window-x="-8"
     inkscape:window-y="-8"
     inkscape:window-maximized="1"
     inkscape:current-layer="layer1" />
  <defs
     id="defs1" />
  <g
     id="g353"
     inkscape:groupmode="layer">
    <path
       style="font-weight:bold;font-size:25.4px;font-family:Golos;-inkscape-font-specification:'Golos Bold';stroke-width:0.264583"
       d="m 205.38591,20.499524 v 1.716174 h 3.30161 v -1.188041 z"
       id="path353" />
    <path
       style="font-weight:bold;font-size:25.4px;font-family:Golos;-inkscape-font-specification:'Golos Bold';stroke-width:0.264583"
       d="m 205.38591,19.232418 v 1.266072 l 3.30161,0.528134 v -1.266073 z"
       id="path352" />
    <path
       style="font-weight:bold;font-size:25.4px;font-family:Golos;-inkscape-font-specification:'Golos Bold';stroke-width:0.264583"
       d="m 166.62549,18.717204 v 0.323494 h 2.02365 z"
       id="path351" />
    <path
       style="font-weight:bold;font-size:25.4px;font-family:Golos;-inkscape-font-specification:'Golos Bold';stroke-width:0.264583"
       d="m 210.46571,18.536336 v 0.504362 h 3.15484 z"
       id="path350" />
    <path
       style="font-weight:bold;font-size:25.4px;font-family:Golos;-inkscape-font-specification:'Golos Bold';stroke-width:0.264583"
       d="m 188.11358,17.737419 v 1.303279 h 8.14886 z"
       id="path349" />
    <path
       style="font-weight:bold;font-size:25.4px;font-family:Golos;-inkscape-font-specification:'Golos Bold';stroke-width:0.264583"
       d="m 226.80631,16.955037 c 0.19805,0.258602 0.41546,0.496661 0.65216,0.714169 0.62653,0.575733 1.35463,1.007661 2.18436,1.295528 0.82973,0.270933 1.71875,0.406177 2.66702,0.406177 0.94827,0 1.83729,-0.143632 2.66702,-0.431499 0.82974,-0.287866 1.55783,-0.719794 2.18436,-1.295528 0.22896,-0.21039 0.43973,-0.440008 0.63252,-0.688847 z"
       id="path348" />
    <path
       style="font-weight:bold;font-size:25.4px;font-family:Golos;-inkscape-font-specification:'Golos Bold';stroke-width:0.264583"
       d="m 219.50805,16.955037 v 2.085661 h 3.91139 v -2.085661 z"
       id="path347" />
    <path
       style="font-weight:bold;font-size:25.4px;font-family:Golos;-inkscape-font-specification:'Golos Bold';stroke-width:0.264583"
       d="m 210.46571,16.955037 v 1.580266 l 3.16156,0.505395 h 0.74983 v -2.085661 z"
       id="path346" />
    <path
       style="font-weight:bold;font-size:25.4px;font-family:Golos;-inkscape-font-specification:'Golos Bold';stroke-width:0.264583"
       d="m 200.58517,16.955037 8.10235,1.295529 v -1.295529 z"
       id="path345" />
    <path
       style="font-weight:bold;font-size:25.4px;font-family:Golos;-inkscape-font-specification:'Golos Bold';stroke-width:0.264583"
       d="m 191.15164,16.955037 13.04158,2.085661 h 1.19269 v 0.190686 l 3.30161,0.528133 v -1.507918 l -8.10907,-1.296562 z"
       id="path344" />
    <path
       style="font-weight:bold;font-size:25.4px;font-family:Golos;-inkscape-font-specification:'Golos Bold';stroke-width:0.264583"
       d="m 188.11358,16.955037 v 0.781348 l 8.15558,1.304313 h 7.91786 l -13.0421,-2.085661 z"
       id="path343" />
    <path
       style="font-weight:bold;font-size:25.4px;font-family:Golos;-inkscape-font-specification:'Golos Bold';stroke-width:0.264583"
       d="m 183.22706,16.955037 1.31,0.20929 c 0.0583,-0.06823 0.11522,-0.1379 0.17053,-0.20929 z"
       id="path342" />
    <path
       style="font-weight:bold;font-size:25.4px;font-family:Golos;-inkscape-font-specification:'Golos Bold';stroke-width:0.264583"
       d="m 173.72015,16.955037 c 0.19804,0.258602 0.41545,0.496661 0.65215,0.714169 0.62654,0.575733 1.35463,1.007661 2.18437,1.295528 0.82973,0.270933 1.71875,0.406177 2.66702,0.406177 0.94826,0 1.83728,-0.143632 2.66702,-0.431499 0.82973,-0.287866 1.55783,-0.719794 2.18436,-1.295528 0.16298,-0.149768 0.31684,-0.30927 0.46147,-0.478523 l -1.3162,-0.210324 z"
       id="path341" />
    <path
       style="font-weight:bold;font-size:25.4px;font-family:Golos;-inkscape-font-specification:'Golos Bold';stroke-width:0.264583"
       d="m 166.62549,16.955037 v 1.761133 l 2.03088,0.324528 h 1.67742 v -2.085661 z"
       id="path340" />
    <path
       style="font-weight:bold;font-size:25.4px;font-family:Golos;-inkscape-font-specification:'Golos Bold';stroke-width:0.264583"
       d="m 155.61427,16.955037 2.67994,0.428398 v -0.428398 z"
       id="path339" />
    <path
       style="font-weight:bold;font-size:25.4px;font-family:Golos;-inkscape-font-specification:'Golos Bold';stroke-width:0.264583"
       d="m 154.58591,16.955037 v 2.085661 h 3.7083 v -1.655713 l -2.68717,-0.429948 z"
       id="path338" />
    <path
       style="font-weight:bold;font-size:25.4px;font-family:Golos;-inkscape-font-specification:'Golos Bold';stroke-width:0.264583"
       d="m 108.94994,16.955037 c 0.19795,0.258602 0.41545,0.496661 0.65216,0.714169 0.62653,0.575733 1.35514,1.007661 2.18488,1.295528 0.82973,0.270933 1.71823,0.406177 2.6665,0.406177 0.94827,0 1.83729,-0.143632 2.66702,-0.431499 0.82973,-0.287866 1.55783,-0.719794 2.18436,-1.295528 0.22896,-0.21039 0.43973,-0.440008 0.63252,-0.688847 z"
       id="path337" />
    <path
       style="font-weight:bold;font-size:25.4px;font-family:Golos;-inkscape-font-specification:'Golos Bold';stroke-width:0.264583"
       d="m 101.65219,16.955037 v 2.085661 h 3.91139 v -2.085661 z"
       id="path336" />
    <path
       style="font-weight:bold;font-size:25.4px;font-family:Golos;-inkscape-font-specification:'Golos Bold';stroke-width:0.264583"
       d="m 92.609851,16.955037 v 2.085661 h 3.911389 v -2.085661 z"
       id="path335" />
    <path
       style="font-weight:bold;font-size:25.4px;font-family:Golos;-inkscape-font-specification:'Golos Bold';stroke-width:0.264583"
       d="m 78.893892,16.955037 v 2.085661 h 6.603732 c 0.9652,0 1.778211,-0.110079 2.438611,-0.330212 0.677333,-0.220133 1.227728,-0.52469 1.651062,-0.914156 0.272201,-0.251264 0.495744,-0.531723 0.67076,-0.841293 z"
       id="path334" />
    <path
       style="font-weight:bold;font-size:25.4px;font-family:Golos;-inkscape-font-specification:'Golos Bold';stroke-width:0.264583"
       d="m 72.188359,16.955037 v 2.085661 h 3.911389 v -2.085661 z"
       id="path333" />
    <path
       style="font-weight:bold;font-size:25.4px;font-family:Golos;-inkscape-font-specification:'Golos Bold';stroke-width:0.264583"
       d="m 62.764644,16.955037 v 2.339909 c 0.135467,0.03387 0.322073,0.05064 0.559139,0.05064 0.254,0.01693 0.448477,0.02532 0.583944,0.02532 0.762,0 1.430863,-0.110079 2.006596,-0.330213 0.592667,-0.220133 1.083828,-0.634768 1.473295,-1.244368 0.155795,-0.243854 0.296756,-0.524284 0.422713,-0.841293 z"
       id="path332" />
    <path
       style="font-weight:bold;font-size:25.4px;font-family:Golos;-inkscape-font-specification:'Golos Bold';stroke-width:0.264583"
       d="m 57.176872,16.955037 v 2.085661 h 3.810103 v -2.085661 z"
       id="path331" />
    <path
       style="font-weight:bold;font-size:25.4px;font-family:Golos;-inkscape-font-specification:'Golos Bold';stroke-width:0.264583"
       d="m 48.032727,16.955037 v 2.085661 h 3.429248 l 1.466577,-2.085661 z"
       id="path330" />
    <path
       style="font-weight:bold;font-size:25.4px;font-family:Golos;-inkscape-font-specification:'Golos Bold';stroke-width:0.264583"
       d="m 38.202836,16.955037 v 2.085661 h 3.911906 v -2.085661 z"
       id="path329" />
    <path
       style="font-weight:bold;font-size:25.4px;font-family:Golos;-inkscape-font-specification:'Golos Bold';stroke-width:0.264583"
       d="m 21.028174,16.955037 c 0.186629,0.248839 0.39115,0.478457 0.613916,0.688847 0.6096,0.575734 1.329308,1.007662 2.159041,1.295528 0.846667,0.287867 1.76924,0.431499 2.768307,0.431499 0.931333,0 1.770025,-0.118468 2.515092,-0.355534 0.762,-0.254 1.413569,-0.601014 1.955436,-1.04128 0.377207,-0.297194 0.700251,-0.636926 0.96945,-1.01906 z"
       id="path328" />
    <path
       style="font-weight:bold;font-size:25.4px;font-family:Golos;-inkscape-font-specification:'Golos Bold';stroke-width:0.264583"
       d="m 154.58591,16.79174 v 0.162264 h 1.01493 z"
       id="path327" />
    <path
       style="font-weight:bold;font-size:25.4px;font-family:Golos;-inkscape-font-specification:'Golos Bold';stroke-width:0.264583"
       d="m 188.11358,16.470312 v 0.483692 h 3.02514 z"
       id="path326" />
    <path
       style="font-weight:bold;font-size:25.4px;font-family:Golos;-inkscape-font-specification:'Golos Bold';stroke-width:0.264583"
       d="m 172.81529,15.291056 c 0.0267,0.07405 0.0546,0.146987 0.0837,0.219108 0.22108,0.536918 0.49478,1.018181 0.82062,1.44384 h 9.49451 z"
       id="path325" />
    <path
       style="font-weight:bold;font-size:25.4px;font-family:Golos;-inkscape-font-specification:'Golos Bold';stroke-width:0.264583"
       d="m 188.11358,14.961877 v 1.507402 l 3.03134,0.484725 h 9.42682 l -6.96392,-1.113627 h -1.58233 v -0.253215 z"
       id="path324" />
    <path
       style="font-weight:bold;font-size:25.4px;font-family:Golos;-inkscape-font-specification:'Golos Bold';stroke-width:0.264583"
       d="m 107.91434,14.887463 c 0.0625,0.214996 0.13415,0.422562 0.21498,0.622701 0.22108,0.536918 0.49442,1.018181 0.8201,1.44384 h 10.989 c 0.0327,-0.0422 0.065,-0.08486 0.0966,-0.128158 l -4.87825,-0.780314 h -10e-4 c -0.21836,0.04936 -0.45231,0.07441 -0.70228,0.07441 -0.61392,0 -1.13246,-0.145029 -1.55546,-0.435115 l -5.2e-4,-5.17e-4 z"
       id="path323" />
    <path
       style="font-weight:bold;font-size:25.4px;font-family:Golos;-inkscape-font-specification:'Golos Bold';stroke-width:0.264583"
       d="m 166.62549,14.301453 v 2.652551 h 3.7083 v -2.059823 z"
       id="path322" />
    <path
       style="font-weight:bold;font-size:25.4px;font-family:Golos;-inkscape-font-specification:'Golos Bold';stroke-width:0.264583"
       d="m 172.48043,13.970207 c 0.0748,0.469501 0.18627,0.909551 0.33434,1.319816 l 10.40609,1.663981 h 1.48776 c 0.22136,-0.285846 0.41863,-0.597255 0.59221,-0.933793 l -4.15736,-0.664559 c -0.47661,0.50956 -1.11658,0.764294 -1.91978,0.764294 -0.9144,0 -1.61734,-0.321849 -2.1084,-0.965315 -0.11424,-0.149692 -0.21518,-0.313355 -0.30283,-0.491443 z"
       id="path321" />
    <path
       style="font-weight:bold;font-size:25.4px;font-family:Golos;-inkscape-font-specification:'Golos Bold';stroke-width:0.264583"
       d="m 181.88295,13.965556 c -0.12271,0.446851 -0.30614,0.834641 -0.55087,1.163753 -0.0595,0.07997 -0.1219,0.155021 -0.18758,0.225309 l 4.15685,0.665076 c 0.0885,-0.171626 0.17092,-0.350039 0.24701,-0.534851 0.11387,-0.281945 0.20942,-0.577579 0.28681,-0.887284 z"
       id="path320" />
    <path
       style="font-weight:bold;font-size:25.4px;font-family:Golos;-inkscape-font-specification:'Golos Bold';stroke-width:0.264583"
       d="m 101.65219,13.885974 v 3.06803 h 3.91139 v -2.442228 z"
       id="path319" />
    <path
       style="font-weight:bold;font-size:25.4px;font-family:Golos;-inkscape-font-specification:'Golos Bold';stroke-width:0.264583"
       d="m 159.49776,13.161471 1.69188,3.339331 h 2.5399 l 1.24799,-2.462899 z"
       id="path318" />
    <path
       style="font-weight:bold;font-size:25.4px;font-family:Golos;-inkscape-font-specification:'Golos Bold';stroke-width:0.264583"
       d="m 166.62549,13.03383 v 1.266072 l 3.7083,0.593246 v -1.266073 z"
       id="path317" />
    <path
       style="font-weight:bold;font-size:25.4px;font-family:Golos;-inkscape-font-specification:'Golos Bold';stroke-width:0.264583"
       d="m 129.05879,12.709302 v 1.099157 h 6.87193 z"
       id="path316" />
    <path
       style="font-weight:bold;font-size:25.4px;font-family:Golos;-inkscape-font-specification:'Golos Bold';stroke-width:0.264583"
       d="m 172.36571,12.443168 c 3e-4,0.53933 0.0386,1.048113 0.11472,1.526005 l 4.33152,0.692464 c -0.21544,-0.438158 -0.35047,-0.962047 -0.40515,-1.571997 z"
       id="path315" />
    <path
       style="font-weight:bold;font-size:25.4px;font-family:Golos;-inkscape-font-specification:'Golos Bold';stroke-width:0.264583"
       d="m 92.609851,12.440068 v 4.513936 h 3.911389 v -3.170866 h 4.48655 z"
       id="path314" />
    <path
       style="font-weight:bold;font-size:25.4px;font-family:Golos;-inkscape-font-specification:'Golos Bold';stroke-width:0.264583"
       d="m 154.58591,12.375989 v 4.414717 l 1.02165,0.163298 h 2.68665 v -3.985287 z"
       id="path313" />
    <path
       style="font-weight:bold;font-size:25.4px;font-family:Golos;-inkscape-font-specification:'Golos Bold';stroke-width:0.264583"
       d="m 225.45187,12.111922 v 0.325045 c 0,1.1684 0.1777,2.192664 0.5333,3.073197 0.22109,0.536918 0.49479,1.018181 0.82062,1.44384 h 10.989 c 0.33444,-0.431865 0.61426,-0.921569 0.83974,-1.469161 0.3556,-0.880533 0.5333,-1.896409 0.5333,-3.047876 v -0.325045 h -4.01319 v 0.325045 c 0,1.134533 -0.24584,2.031942 -0.73691,2.692342 -0.49106,0.6604 -1.19348,0.990637 -2.10788,0.990637 -0.9144,0 -1.61733,-0.321849 -2.1084,-0.965315 -0.49106,-0.643467 -0.73639,-1.549264 -0.73639,-2.717664 v -0.325045 z"
       id="path312" />
    <path
       style="font-weight:bold;font-size:25.4px;font-family:Golos;-inkscape-font-specification:'Golos Bold';stroke-width:0.264583"
       d="m 210.46571,12.111922 v 4.842082 h 3.91139 v -3.170866 h 5.13095 v 3.170866 h 3.91139 v -4.842082 z"
       id="path311" />
    <path
       style="font-weight:bold;font-size:25.4px;font-family:Golos;-inkscape-font-specification:'Golos Bold';stroke-width:0.264583"
       d="m 195.55602,12.111922 v 3.728455 h -1.94096 l 6.96339,1.113627 h 8.10907 v -1.113627 h -1.77767 v -3.728455 h -3.9119 v 3.728455 h -3.53054 v -3.728455 z"
       id="path310" />
    <path
       style="font-weight:bold;font-size:25.4px;font-family:Golos;-inkscape-font-specification:'Golos Bold';stroke-width:0.264583"
       d="m 188.11358,12.111922 v 2.848922 l 3.91191,0.625285 v -3.474207 z"
       id="path309" />
    <path
       style="font-weight:bold;font-size:25.4px;font-family:Golos;-inkscape-font-specification:'Golos Bold';stroke-width:0.264583"
       d="m 182.06847,12.111922 v 0.325045 c 0,0.568726 -0.0616,1.077988 -0.185,1.527555 l 3.95222,0.632003 c 0.16414,-0.657263 0.24598,-1.377175 0.24598,-2.159558 v -0.325045 z"
       id="path308" />
    <path
       style="font-weight:bold;font-size:25.4px;font-family:Golos;-inkscape-font-specification:'Golos Bold';stroke-width:0.264583"
       d="m 172.36571,12.111922 v 0.325045 0.0052 l 4.04109,0.646472 c -0.0185,-0.207268 -0.0279,-0.424505 -0.0279,-0.65164 v -0.325045 z"
       id="path307" />
    <path
       style="font-weight:bold;font-size:25.4px;font-family:Golos;-inkscape-font-specification:'Golos Bold';stroke-width:0.264583"
       d="m 170.29968,12.111922 0.0341,0.0052 v -0.0052 z"
       id="path306" />
    <path
       style="font-weight:bold;font-size:25.4px;font-family:Golos;-inkscape-font-specification:'Golos Bold';stroke-width:0.264583"
       d="m 166.62549,12.111922 v 0.920874 l 3.7083,0.593246 V 12.11864 l -0.0408,-0.0067 z"
       id="path305" />
    <path
       style="font-weight:bold;font-size:25.4px;font-family:Golos;-inkscape-font-specification:'Golos Bold';stroke-width:0.264583"
       d="m 160.86667,12.111922 4.70565,0.752409 0.38137,-0.752409 h -3.34708 l -0.0708,0.147278 -0.0708,-0.147278 z"
       id="path304" />
    <path
       style="font-weight:bold;font-size:25.4px;font-family:Golos;-inkscape-font-specification:'Golos Bold';stroke-width:0.264583"
       d="m 158.96601,12.111922 0.53123,1.048515 5.4808,0.876432 0.59377,-1.171504 -4.71134,-0.753443 z"
       id="path303" />
    <path
       style="font-weight:bold;font-size:25.4px;font-family:Golos;-inkscape-font-specification:'Golos Bold';stroke-width:0.264583"
       d="m 154.58591,12.111922 v 0.263033 l 3.7083,0.592729 v -0.855762 z"
       id="path302" />
    <path
       style="font-weight:bold;font-size:25.4px;font-family:Golos;-inkscape-font-specification:'Golos Bold';stroke-width:0.264583"
       d="m 129.05879,12.111922 v 0.596346 l 6.87917,1.100191 h 10.39264 v -1.696537 z"
       id="path301" />
    <path
       style="font-weight:bold;font-size:25.4px;font-family:Golos;-inkscape-font-specification:'Golos Bold';stroke-width:0.264583"
       d="m 117.29827,12.111922 v 0.325045 c 0,1.134533 -0.24533,2.031942 -0.73639,2.692342 -0.35609,0.478875 -0.82376,0.784067 -1.4025,0.915706 l 4.87619,0.779798 c 0.29184,-0.399637 0.53929,-0.846254 0.74259,-1.33997 0.3556,-0.880533 0.53382,-1.896409 0.53382,-3.047876 v -0.325045 z"
       id="path300" />
    <path
       style="font-weight:bold;font-size:25.4px;font-family:Golos;-inkscape-font-specification:'Golos Bold';stroke-width:0.264583"
       d="m 107.5955,12.111922 v 0.325045 c 0,0.902392 0.1061,1.718837 0.31833,2.449463 l 4.98109,0.79685 c -0.20588,-0.141647 -0.3887,-0.31817 -0.54932,-0.528649 -0.49107,-0.643467 -0.73691,-1.549264 -0.73691,-2.717664 v -0.325045 z"
       id="path299" />
    <path
       style="font-weight:bold;font-size:25.4px;font-family:Golos;-inkscape-font-specification:'Golos Bold';stroke-width:0.264583"
       d="m 92.609851,12.111922 v 0.327112 l 8.404659,1.344104 h 0.63768 v 0.101803 l 3.91139,0.625801 v -2.39882 z"
       id="path298" />
    <path
       style="font-weight:bold;font-size:25.4px;font-family:Golos;-inkscape-font-specification:'Golos Bold';stroke-width:0.264583"
       d="m 78.893892,12.111922 v 4.842082 h 11.364681 c 0.107807,-0.190842 0.197221,-0.392707 0.268201,-0.605648 0.2032,-0.5588 0.304891,-1.176817 0.304891,-1.85415 0,-0.943112 -0.168178,-1.737297 -0.504362,-2.382284 z m 3.91139,0.781865 h 2.184362 c 0.694267,0 1.185429,0.127372 1.473295,0.381372 0.3048,0.254 0.457337,0.660247 0.457337,1.219047 0,0.541866 -0.152537,0.948113 -0.457337,1.219047 -0.287866,0.254 -0.779028,0.381372 -1.473295,0.381372 h -2.184362 z"
       id="path297" />
    <path
       style="font-weight:bold;font-size:25.4px;font-family:Golos;-inkscape-font-specification:'Golos Bold';stroke-width:0.264583"
       d="m 72.188359,12.111922 v 4.842082 h 3.911389 v -4.842082 z"
       id="path296" />
    <path
       style="font-weight:bold;font-size:25.4px;font-family:Golos;-inkscape-font-specification:'Golos Bold';stroke-width:0.264583"
       d="m 64.886995,12.111922 c -0.02104,0.377821 -0.05133,0.723302 -0.09043,1.036113 -0.06773,0.6604 -0.177813,1.202407 -0.330213,1.62574 -0.1524,0.4064 -0.338489,0.702568 -0.558622,0.888835 -0.220133,0.169333 -0.474361,0.253731 -0.762227,0.253731 -0.169334,0 -0.296189,-0.0084 -0.380856,-0.02532 v 1.062984 h 5.046204 c 0.18874,-0.475252 0.343775,-1.032642 0.465605,-1.672249 0.163605,-0.858928 0.261642,-1.915729 0.293522,-3.169833 z"
       id="path295" />
    <path
       style="font-weight:bold;font-size:25.4px;font-family:Golos;-inkscape-font-specification:'Golos Bold';stroke-width:0.264583"
       d="m 57.176872,12.111922 v 4.842082 h 3.810103 v -4.842082 z"
       id="path294" />
    <path
       style="font-weight:bold;font-size:25.4px;font-family:Golos;-inkscape-font-specification:'Golos Bold';stroke-width:0.264583"
       d="m 48.032727,12.111922 v 4.842082 h 4.896342 l 3.40496,-4.842082 h -3.36982 l -1.121379,1.594735 v -1.594735 z"
       id="path293" />
    <path
       style="font-weight:bold;font-size:25.4px;font-family:Golos;-inkscape-font-specification:'Golos Bold';stroke-width:0.264583"
       d="m 38.202836,12.111922 v 4.842082 h 3.911906 v -4.842082 z"
       id="path292" />
    <path
       style="font-weight:bold;font-size:25.4px;font-family:Golos;-inkscape-font-specification:'Golos Bold';stroke-width:0.264583"
       d="m 19.711458,12.111922 v 0.325045 c 0,1.1684 0.169313,2.184276 0.50798,3.047876 0.214741,0.547592 0.483955,1.037296 0.807702,1.469161 h 10.983309 c 0.129316,-0.183667 0.246002,-0.377091 0.350366,-0.580326 0.321734,-0.643467 0.507823,-1.363175 0.558623,-2.159042 h -4.013192 c -0.135467,0.626534 -0.414858,1.100919 -0.838192,1.422652 -0.4064,0.3048 -0.90595,0.457337 -1.498616,0.457337 -0.8636,0 -1.557627,-0.296685 -2.082561,-0.889352 -0.508,-0.592666 -0.762227,-1.515239 -0.762227,-2.768306 v -0.325045 z"
       id="path291" />
    <path
       style="font-weight:bold;font-size:25.4px;font-family:Golos;-inkscape-font-specification:'Golos Bold';stroke-width:0.264583"
       d="m 158.79909,11.782227 0.1664,0.328662 h 1.88826 z"
       id="path290" />
    <path
       style="font-weight:bold;font-size:25.4px;font-family:Golos;-inkscape-font-specification:'Golos Bold';stroke-width:0.264583"
       d="m 166.62549,11.525395 v 0.585494 h 3.66127 z"
       id="path289" />
    <path
       style="font-weight:bold;font-size:25.4px;font-family:Golos;-inkscape-font-specification:'Golos Bold';stroke-width:0.264583"
       d="m 154.58591,11.108366 v 1.002523 h 3.7083 v -0.409278 z"
       id="path288" />
    <path
       style="font-weight:bold;font-size:25.4px;font-family:Golos;-inkscape-font-specification:'Golos Bold';stroke-width:0.264583"
       d="m 163.15335,10.969873 -0.54674,1.141016 h 3.3476 l 0.32453,-0.640788 z"
       id="path287" />
    <path
       style="font-weight:bold;font-size:25.4px;font-family:Golos;-inkscape-font-specification:'Golos Bold';stroke-width:0.264583"
       d="m 117.18199,10.810193 c 0.0775,0.342243 0.11628,0.715084 0.11628,1.118795 v 0.181901 h 4.01371 v -0.181901 c 0,-0.155946 -0.004,-0.309401 -0.0109,-0.459921 z"
       id="path286" />
    <path
       style="font-weight:bold;font-size:25.4px;font-family:Golos;-inkscape-font-specification:'Golos Bold';stroke-width:0.264583"
       d="m 78.893892,10.24692 v 1.863969 h 11.432894 c -0.0069,-0.01317 -0.01366,-0.02623 -0.02067,-0.03927 z"
       id="path285" />
    <path
       style="font-weight:bold;font-size:25.4px;font-family:Golos;-inkscape-font-specification:'Golos Bold';stroke-width:0.264583"
       d="m 140.0421,10.048999 6.2885,1.005623 v -1.005623 z"
       id="path284" />
    <path
       style="font-weight:bold;font-size:25.4px;font-family:Golos;-inkscape-font-specification:'Golos Bold';stroke-width:0.264583"
       d="m 129.05879,10.048999 v 2.06189 h 17.27181 v -1.055233 l -6.29522,-1.006657 z"
       id="path283" />
    <path
       style="font-weight:bold;font-size:25.4px;font-family:Golos;-inkscape-font-specification:'Golos Bold';stroke-width:0.264583"
       d="m 154.58591,9.5999308 v 1.5074012 l 3.7083,0.593246 v -0.914673 l 0.50437,0.995288 2.06189,0.329696 h 1.60455 l -0.64906,-1.35444 z"
       id="path282" />
    <path
       style="font-weight:bold;font-size:25.4px;font-family:Golos;-inkscape-font-specification:'Golos Bold';stroke-width:0.264583"
       d="m 108.00684,9.343099 c -0.27409,0.757478 -0.41134,1.619706 -0.41134,2.585889 v 0.181901 h 4.01319 v -0.181901 c 0,-0.755937 0.13631,-1.404213 0.40825,-1.9445845 z"
       id="path281" />
    <path
       style="font-weight:bold;font-size:25.4px;font-family:Golos;-inkscape-font-specification:'Golos Bold';stroke-width:0.264583"
       d="m 72.188359,9.1746338 v 2.9362552 h 3.911389 V 9.7999186 Z"
       id="path280" />
    <path
       style="font-weight:bold;font-size:25.4px;font-family:Golos;-inkscape-font-specification:'Golos Bold';stroke-width:0.264583"
       d="m 64.923686,8.0124308 v 2.6463502 c 0,0.528157 -0.01221,1.012096 -0.03669,1.452108 h 3.68298 c 0.0077,-0.303204 0.01137,-0.61783 0.01137,-0.944129 V 8.7793091 h 1.136364 z"
       id="path279" />
    <path
       style="font-weight:bold;font-size:25.4px;font-family:Golos;-inkscape-font-specification:'Golos Bold';stroke-width:0.264583"
       d="m 226.85075,7.586617 c -0.34581,0.4249063 -0.63435,0.9068884 -0.86558,1.4464234 -0.3556,0.8297336 -0.5333,1.7952816 -0.5333,2.8959476 v 0.181901 h 4.01319 v -0.181901 c 0,-1.016 0.24533,-1.837399 0.73639,-2.4639327 0.49107,-0.6434666 1.194,-0.9653157 2.1084,-0.9653157 0.9144,0 1.61682,0.3218491 2.10788,0.9653157 0.49107,0.6265337 0.73691,1.4479327 0.73691,2.4639327 v 0.181901 h 4.01319 v -0.181901 c 0,-1.100666 -0.1777,-2.066214 -0.5333,-2.8959476 -0.23123,-0.539535 -0.51976,-1.0215171 -0.86558,-1.4464234 z"
       id="path278" />
    <path
       style="font-weight:bold;font-size:25.4px;font-family:Golos;-inkscape-font-specification:'Golos Bold';stroke-width:0.264583"
       d="m 210.46571,7.586617 v 4.524272 h 12.95373 V 7.586617 h -3.91139 v 2.9962 h -5.13095 v -2.9962 z"
       id="path277" />
    <path
       style="font-weight:bold;font-size:25.4px;font-family:Golos;-inkscape-font-specification:'Golos Bold';stroke-width:0.264583"
       d="m 202.99795,7.586617 v 4.524272 h 3.9119 V 7.586617 Z"
       id="path276" />
    <path
       style="font-weight:bold;font-size:25.4px;font-family:Golos;-inkscape-font-specification:'Golos Bold';stroke-width:0.264583"
       d="m 195.55602,7.586617 v 4.524272 h 3.91139 V 7.586617 Z"
       id="path275" />
    <path
       style="font-weight:bold;font-size:25.4px;font-family:Golos;-inkscape-font-specification:'Golos Bold';stroke-width:0.264583"
       d="m 188.11358,7.586617 v 4.524272 h 3.91191 V 7.586617 Z"
       id="path274" />
    <path
       style="font-weight:bold;font-size:25.4px;font-family:Golos;-inkscape-font-specification:'Golos Bold';stroke-width:0.264583"
       d="m 173.76459,7.586617 c -0.34582,0.4249063 -0.63435,0.9068884 -0.86558,1.4464234 -0.3556,0.8297336 -0.5333,1.7952816 -0.5333,2.8959476 v 0.181901 h 4.01319 v -0.181901 c 0,-1.016 0.24532,-1.837399 0.73639,-2.4639327 0.49106,-0.6434666 1.194,-0.9653157 2.1084,-0.9653157 0.9144,0 1.61733,0.3218491 2.10839,0.9653157 0.49107,0.6265337 0.73639,1.4479327 0.73639,2.4639327 v 0.181901 h 4.0132 v -0.181901 c 0,-1.100666 -0.17771,-2.066214 -0.53331,-2.8959476 -0.23123,-0.539535 -0.51976,-1.0215171 -0.86558,-1.4464234 z"
       id="path273" />
    <path
       style="font-weight:bold;font-size:25.4px;font-family:Golos;-inkscape-font-specification:'Golos Bold';stroke-width:0.264583"
       d="m 164.77444,7.586617 -1.62057,3.382739 3.12539,0.499711 0.34623,-0.683162 v 0.738456 l 3.66799,0.586528 h 0.0403 V 7.586617 Z"
       id="path272" />
    <path
       style="font-weight:bold;font-size:25.4px;font-family:Golos;-inkscape-font-specification:'Golos Bold';stroke-width:0.264583"
       d="m 154.58591,7.586617 v 2.0122803 l 7.22954,1.1560017 -1.51826,-3.168282 z"
       id="path271" />
    <path
       style="font-weight:bold;font-size:25.4px;font-family:Golos;-inkscape-font-specification:'Golos Bold';stroke-width:0.264583"
       d="m 108.99438,7.586617 c -0.34566,0.4249063 -0.63383,0.9068884 -0.86506,1.4464234 -0.0433,0.1009266 -0.084,0.2040807 -0.12196,0.309025 l 4.01009,0.6413046 c 0.0934,-0.1853892 0.20275,-0.3583321 0.32815,-0.5183147 0.49106,-0.6434666 1.19348,-0.9653157 2.10788,-0.9653157 0.9144,0 1.61733,0.3218491 2.1084,0.9653157 0.29573,0.3773238 0.50254,0.8254857 0.62011,1.3441037 l 4.11913,0.658358 c -0.0434,-0.911224 -0.21792,-1.7227002 -0.52296,-2.4344766 -0.23123,-0.539535 -0.51977,-1.0215171 -0.86558,-1.4464234 z"
       id="path270" />
    <path
       style="font-weight:bold;font-size:25.4px;font-family:Golos;-inkscape-font-specification:'Golos Bold';stroke-width:0.264583"
       d="M 101.65219,7.586617 V 8.32559 l 3.91139,0.6252848 V 7.586617 Z"
       id="path269" />
    <path
       style="font-weight:bold;font-size:25.4px;font-family:Golos;-inkscape-font-specification:'Golos Bold';stroke-width:0.264583"
       d="m 92.609851,7.586617 v 4.524272 H 105.56358 V 8.9524251 l -3.91139,-0.6258016 v 2.2561935 h -5.13095 v -2.9962 z"
       id="path268" />
    <path
       style="font-weight:bold;font-size:25.4px;font-family:Golos;-inkscape-font-specification:'Golos Bold';stroke-width:0.264583"
       d="m 78.893892,7.586617 v 2.659269 l 11.411707,1.824695 C 90.09531,11.679541 89.821854,11.3442 89.485494,11.064958 88.588027,10.319891 87.25869,9.9477132 85.497624,9.9477132 H 82.805282 V 7.586617 Z"
       id="path267" />
    <path
       style="font-weight:bold;font-size:25.4px;font-family:Golos;-inkscape-font-specification:'Golos Bold';stroke-width:0.264583"
       d="m 64.923686,7.586617 v 0.4247803 l 4.80074,0.7679118 h 2.463933 v 0.3942912 l 3.911389,0.6252848 V 7.586617 Z"
       id="path266" />
    <path
       style="font-weight:bold;font-size:25.4px;font-family:Golos;-inkscape-font-specification:'Golos Bold';stroke-width:0.264583"
       d="m 56.145927,7.586617 -3.181201,4.524272 h 3.36982 l 0.842326,-1.19786 v 1.19786 h 3.810103 V 7.586617 Z"
       id="path265" />
    <path
       style="font-weight:bold;font-size:25.4px;font-family:Golos;-inkscape-font-specification:'Golos Bold';stroke-width:0.264583"
       d="m 48.032727,7.586617 v 4.524272 H 51.84283 V 7.586617 Z"
       id="path264" />
    <path
       style="font-weight:bold;font-size:25.4px;font-family:Golos;-inkscape-font-specification:'Golos Bold';stroke-width:0.264583"
       d="m 34.06252,7.586617 v 1.1926921 h 4.140316 v 3.3315799 h 3.911906 V 8.7793091 h 4.139799 V 7.586617 Z"
       id="path263" />
    <path
       style="font-weight:bold;font-size:25.4px;font-family:Golos;-inkscape-font-specification:'Golos Bold';stroke-width:0.264583"
       d="m 21.163566,7.586617 c -0.360242,0.4373062 -0.66635,0.9364426 -0.91829,1.497583 -0.3556,0.8297337 -0.533818,1.777988 -0.533818,2.844788 v 0.181901 h 4.013192 v -0.181901 c 0,-1.151466 0.262616,-2.0069349 0.787549,-2.5657352 0.541867,-0.5757334 1.227505,-0.8635132 2.057239,-0.8635132 0.694266,0 1.219497,0.1693126 1.575097,0.5079793 0.372534,0.3217333 0.626244,0.7877276 0.761711,1.3973311 h 4.013192 C 32.868638,9.6938465 32.699325,9.0244703 32.411458,8.397937 32.278902,8.1094314 32.121408,7.8391309 31.938619,7.586617 Z"
       id="path262" />
    <path
       style="font-weight:bold;font-size:25.4px;font-family:Golos;-inkscape-font-specification:'Golos Bold';stroke-width:0.264583"
       d="M 92.609851,6.880717 V 7.5855835 H 96.52124 V 7.5060018 Z"
       id="path261" />
    <path
       style="font-weight:bold;font-size:25.4px;font-family:Golos;-inkscape-font-specification:'Golos Bold';stroke-width:0.264583"
       d="M 56.763977,6.7076009 56.14696,7.5855835 h 4.840015 V 7.3830119 Z"
       id="path260" />
    <path
       style="font-weight:bold;font-size:25.4px;font-family:Golos;-inkscape-font-specification:'Golos Bold';stroke-width:0.264583"
       d="m 112.09497,5.5805379 c -0.10356,0.030973 -0.20621,0.064423 -0.30799,0.099735 -0.82974,0.2878667 -1.55835,0.7114067 -2.18488,1.2702067 -0.21882,0.1951547 -0.42099,0.4069417 -0.60669,0.6351034 h 10.91613 c -0.18578,-0.2281617 -0.38787,-0.4399487 -0.60668,-0.6351034 -0.10451,-0.093217 -0.21177,-0.182513 -0.32194,-0.2682006 z"
       id="path259" />
    <path
       style="font-weight:bold;font-size:25.4px;font-family:Golos;-inkscape-font-specification:'Golos Bold';stroke-width:0.264583"
       d="m 219.50805,5.5789876 v 2.0065959 h 3.91139 V 5.5789876 Z"
       id="path258" />
    <path
       style="font-weight:bold;font-size:25.4px;font-family:Golos;-inkscape-font-specification:'Golos Bold';stroke-width:0.264583"
       d="m 210.46571,5.5789876 v 2.0065959 h 3.91139 V 5.5789876 Z"
       id="path257" />
    <path
       style="font-weight:bold;font-size:25.4px;font-family:Golos;-inkscape-font-specification:'Golos Bold';stroke-width:0.264583"
       d="m 202.99795,5.5789876 v 2.0065959 h 3.9119 V 5.5789876 Z"
       id="path256" />
    <path
       style="font-weight:bold;font-size:25.4px;font-family:Golos;-inkscape-font-specification:'Golos Bold';stroke-width:0.264583"
       d="m 195.55602,5.5789876 v 2.0065959 h 3.91139 V 5.5789876 Z"
       id="path255" />
    <path
       style="font-weight:bold;font-size:25.4px;font-family:Golos;-inkscape-font-specification:'Golos Bold';stroke-width:0.264583"
       d="m 188.11358,5.5789876 v 2.0065959 h 3.91191 V 5.5789876 Z"
       id="path254" />
    <path
       style="font-weight:bold;font-size:25.4px;font-family:Golos;-inkscape-font-specification:'Golos Bold';stroke-width:0.264583"
       d="m 165.73614,5.5789876 -0.96118,2.0065959 h 5.55883 V 5.5789876 Z"
       id="path253" />
    <path
       style="font-weight:bold;font-size:25.4px;font-family:Golos;-inkscape-font-specification:'Golos Bold';stroke-width:0.264583"
       d="m 154.58591,5.5789876 v 2.0065959 h 5.71077 l -0.96119,-2.0065959 z"
       id="path252" />
    <path
       style="font-weight:bold;font-size:25.4px;font-family:Golos;-inkscape-font-specification:'Golos Bold';stroke-width:0.264583"
       d="m 101.65219,5.5789876 v 2.0065959 h 3.91139 V 5.5789876 Z"
       id="path251" />
    <path
       style="font-weight:bold;font-size:25.4px;font-family:Golos;-inkscape-font-specification:'Golos Bold';stroke-width:0.264583"
       d="M 92.609851,5.5789876 V 6.8796834 L 96.52124,7.5049683 V 5.5789876 Z"
       id="path250" />
    <path
       style="font-weight:bold;font-size:25.4px;font-family:Golos;-inkscape-font-specification:'Golos Bold';stroke-width:0.264583"
       d="m 78.893892,5.5789876 v 2.0065959 h 3.91139 V 5.5789876 Z"
       id="path249" />
    <path
       style="font-weight:bold;font-size:25.4px;font-family:Golos;-inkscape-font-specification:'Golos Bold';stroke-width:0.264583"
       d="M 64.923686,5.5789876 V 7.5855835 H 76.099748 V 5.5789876 Z"
       id="path248" />
    <path
       style="font-weight:bold;font-size:25.4px;font-family:Golos;-inkscape-font-specification:'Golos Bold';stroke-width:0.264583"
       d="m 57.557727,5.5789876 -0.792716,1.1280965 4.221964,0.6748943 V 5.5789876 Z"
       id="path247" />
    <path
       style="font-weight:bold;font-size:25.4px;font-family:Golos;-inkscape-font-specification:'Golos Bold';stroke-width:0.264583"
       d="M 49.712211,5.5789876 51.84283,5.9195353 V 5.5789876 Z"
       id="path246" />
    <path
       style="font-weight:bold;font-size:25.4px;font-family:Golos;-inkscape-font-specification:'Golos Bold';stroke-width:0.264583"
       d="M 48.032727,5.5789876 V 7.5855835 H 51.84283 V 5.9205688 L 49.705493,5.5789876 Z"
       id="path245" />
    <path
       style="font-weight:bold;font-size:25.4px;font-family:Golos;-inkscape-font-specification:'Golos Bold';stroke-width:0.264583"
       d="M 34.06252,5.5789876 V 7.5855835 H 46.254541 V 5.5789876 Z"
       id="path244" />
    <path
       style="font-weight:bold;font-size:25.4px;font-family:Golos;-inkscape-font-specification:'Golos Bold';stroke-width:0.264583"
       d="m 232.30985,5.2487752 c -0.94827,0 -1.83729,0.1436316 -2.66702,0.4314982 -0.82973,0.2878667 -1.55783,0.7114067 -2.18436,1.2702067 -0.21881,0.1951547 -0.4209,0.4069417 -0.60668,0.6351034 h 10.91613 c -0.18578,-0.2281617 -0.38787,-0.4399487 -0.60669,-0.6351034 -0.62653,-0.5588 -1.35462,-0.98234 -2.18436,-1.2702067 -0.82973,-0.2878666 -1.71875,-0.4314982 -2.66702,-0.4314982 z"
       id="path243" />
    <path
       style="font-weight:bold;font-size:25.4px;font-family:Golos;-inkscape-font-specification:'Golos Bold';stroke-width:0.264583"
       d="m 179.22369,5.2487752 c -0.94827,0 -1.83729,0.1436316 -2.66702,0.4314982 -0.82974,0.2878667 -1.55783,0.7114067 -2.18437,1.2702067 -0.21881,0.1951547 -0.4209,0.4069417 -0.60668,0.6351034 h 10.91613 c -0.18578,-0.2281617 -0.38787,-0.4399487 -0.60668,-0.6351034 -0.62653,-0.5588 -1.35463,-0.98234 -2.18436,-1.2702067 -0.82974,-0.2878666 -1.71876,-0.4314982 -2.66702,-0.4314982 z"
       id="path242" />
    <path
       style="font-weight:bold;font-size:25.4px;font-family:Golos;-inkscape-font-specification:'Golos Bold';stroke-width:0.264583"
       d="m 114.45348,5.2487752 c -0.83094,0 -1.6161,0.1102646 -2.35593,0.331246 l 6.88433,1.1012247 C 118.43191,6.2536802 117.81136,5.9199602 117.1205,5.6802734 116.29077,5.3924068 115.40175,5.2487752 114.45348,5.2487752 Z"
       id="path241" />
    <path
       style="font-weight:bold;font-size:25.4px;font-family:Golos;-inkscape-font-specification:'Golos Bold';stroke-width:0.264583"
       d="m 26.569438,5.2487752 c -0.948267,0 -1.836771,0.1520197 -2.666504,0.4568197 C 23.0732,5.9934616 22.344588,6.4253897 21.718054,7.001123 21.521035,7.181724 21.33628,7.3766431 21.164083,7.5855835 H 31.937585 C 31.723584,7.2901143 31.475305,7.0191041 31.192411,6.7727132 30.667478,6.2985799 30.015392,5.9258853 29.236458,5.654952 c -0.762,-0.2709333 -1.65102,-0.4061768 -2.66702,-0.4061768 z"
       id="text1" />
  </g>
  <g
     inkscape:label="Слой 1"
     inkscape:groupmode="layer"
     id="layer1" />
</svg>
