<?xml version="1.0" encoding="UTF-8" standalone="no"?>
<!-- Created with Inkscape (http://www.inkscape.org/) -->

<svg
   width="1014"
   height="96"
   viewBox="0 0 268.28749 25.4"
   version="1.1"
   id="svg1"
   inkscape:version="1.4.2 (f4327f4, 2025-05-13)"
   sodipodi:docname="javascript2.svg"
   xmlns:inkscape="http://www.inkscape.org/namespaces/inkscape"
   xmlns:sodipodi="http://sodipodi.sourceforge.net/DTD/sodipodi-0.dtd"
   xmlns="http://www.w3.org/2000/svg"
   xmlns:svg="http://www.w3.org/2000/svg">
  <sodipodi:namedview
     id="namedview1"
     pagecolor="#ffffff"
     bordercolor="#000000"
     borderopacity="0.25"
     inkscape:showpageshadow="2"
     inkscape:pageopacity="0.0"
     inkscape:pagecheckerboard="0"
     inkscape:deskcolor="#d1d1d1"
     inkscape:document-units="mm"
     inkscape:zoom="0.72604517"
     inkscape:cx="380.14164"
     inkscape:cy="358.7931"
     inkscape:window-width="1920"
     inkscape:window-height="1017"
     inkscape:window-x="-8"
     inkscape:window-y="-8"
     inkscape:window-maximized="1"
     inkscape:current-layer="layer1" />
  <defs
     id="defs1" />
  <g
     inkscape:label="Слой 1"
     inkscape:groupmode="layer"
     id="layer1">
    <path
       style="font-weight:bold;font-size:25.4px;font-family:Golos;-inkscape-font-specification:'Golos Bold';stroke-width:0.264583"
       d="m 232.66849,16.333887 v 3.030306 c 0.81452,-0.03189 1.58417,-0.173521 2.30838,-0.424781 0.82974,-0.287866 1.55783,-0.719794 2.18436,-1.295528 0.40856,-0.375429 0.75979,-0.812149 1.05317,-1.309997 z"
       id="path231" />
    <path
       style="font-weight:bold;font-size:25.4px;font-family:Golos;-inkscape-font-specification:'Golos Bold';stroke-width:0.264583"
       d="m 226.39083,16.333887 c 0.29636,0.508376 0.65217,0.953537 1.06764,1.335319 0.62653,0.575733 1.35463,1.007661 2.18436,1.295528 0.82973,0.270933 1.71875,0.406177 2.66702,0.406177 0.0868,0 0.1731,-0.0012 0.2589,-0.0036 v -3.033406 z"
       id="path230" />
    <path
       style="font-weight:bold;font-size:25.4px;font-family:Golos;-inkscape-font-specification:'Golos Bold';stroke-width:0.264583"
       d="m 219.50805,16.333887 v 2.706811 h 3.91139 v -2.706811 z"
       id="path229" />
    <path
       style="font-weight:bold;font-size:25.4px;font-family:Golos;-inkscape-font-specification:'Golos Bold';stroke-width:0.264583"
       d="m 210.46571,16.333887 v 2.706811 h 3.91139 v -2.706811 z"
       id="path228" />
    <path
       style="font-weight:bold;font-size:25.4px;font-family:Golos;-inkscape-font-specification:'Golos Bold';stroke-width:0.264583"
       d="m 201.71275,16.333887 v 2.706811 h 3.67316 v 3.175 h 3.30161 v -5.881811 z"
       id="path227" />
    <path
       style="font-weight:bold;font-size:25.4px;font-family:Golos;-inkscape-font-specification:'Golos Bold';stroke-width:0.264583"
       d="m 194.03984,16.333887 v 2.706811 h 7.57266 v -2.706811 z"
       id="path226" />
    <path
       style="font-weight:bold;font-size:25.4px;font-family:Golos;-inkscape-font-specification:'Golos Bold';stroke-width:0.264583"
       d="m 188.11358,16.333887 v 2.706811 h 5.826 v -2.706811 z"
       id="path225" />
    <path
       style="font-weight:bold;font-size:25.4px;font-family:Golos;-inkscape-font-specification:'Golos Bold';stroke-width:0.264583"
       d="m 179.05832,16.333887 v 3.035473 c 0.055,9.23e-4 0.10999,0.0016 0.16537,0.0016 0.94826,0 1.83728,-0.143632 2.66702,-0.431499 0.82973,-0.287866 1.55783,-0.719794 2.18436,-1.295528 0.40855,-0.375429 0.75979,-0.812149 1.05316,-1.309997 z"
       id="path224" />
    <path
       style="font-weight:bold;font-size:25.4px;font-family:Golos;-inkscape-font-specification:'Golos Bold';stroke-width:0.264583"
       d="m 173.30467,16.333887 c 0.29635,0.508376 0.65217,0.953537 1.06763,1.335319 0.62654,0.575733 1.35463,1.007661 2.18437,1.295528 0.75182,0.245495 1.55224,0.379544 2.4014,0.402559 v -3.033406 z"
       id="path223" />
    <path
       style="font-weight:bold;font-size:25.4px;font-family:Golos;-inkscape-font-specification:'Golos Bold';stroke-width:0.264583"
       d="m 166.62549,16.333887 v 2.706811 h 3.7083 v -2.706811 z"
       id="path222" />
    <path
       style="font-weight:bold;font-size:25.4px;font-family:Golos;-inkscape-font-specification:'Golos Bold';stroke-width:0.264583"
       d="m 162.819,16.333887 v 0.166915 h 0.91054 l 0.0848,-0.166915 z"
       id="path221" />
    <path
       style="font-weight:bold;font-size:25.4px;font-family:Golos;-inkscape-font-specification:'Golos Bold';stroke-width:0.264583"
       d="m 161.1049,16.333887 0.0847,0.166915 h 1.52911 v -0.166915 z"
       id="path220" />
    <path
       style="font-weight:bold;font-size:25.4px;font-family:Golos;-inkscape-font-specification:'Golos Bold';stroke-width:0.264583"
       d="m 154.58591,16.333887 v 2.706811 h 3.7083 v -2.706811 z"
       id="path219" />
    <path
       style="font-weight:bold;font-size:25.4px;font-family:Golos;-inkscape-font-specification:'Golos Bold';stroke-width:0.264583"
       d="m 114.56458,16.333887 v 3.036507 c 0.90663,-0.01082 1.75872,-0.154402 2.55592,-0.430982 0.82973,-0.287866 1.55783,-0.719794 2.18436,-1.295528 0.40856,-0.375429 0.75979,-0.812149 1.05317,-1.309997 z"
       id="path218" />
    <path
       style="font-weight:bold;font-size:25.4px;font-family:Golos;-inkscape-font-specification:'Golos Bold';stroke-width:0.264583"
       d="m 108.53446,16.333887 c 0.2962,0.508376 0.65216,0.953537 1.06764,1.335319 0.62653,0.575733 1.35514,1.007661 2.18488,1.295528 0.82973,0.270933 1.71823,0.406177 2.6665,0.406177 0.004,0 0.008,4e-6 0.0114,0 v -3.037024 z"
       id="path217" />
    <path
       style="font-weight:bold;font-size:25.4px;font-family:Golos;-inkscape-font-specification:'Golos Bold';stroke-width:0.264583"
       d="m 101.65219,16.333887 v 2.706811 h 3.91139 v -2.706811 z"
       id="path216" />
    <path
       style="font-weight:bold;font-size:25.4px;font-family:Golos;-inkscape-font-specification:'Golos Bold';stroke-width:0.264583"
       d="m 92.609851,16.333887 v 2.706811 h 3.911389 v -2.706811 z"
       id="path215" />
    <path
       style="font-weight:bold;font-size:25.4px;font-family:Golos;-inkscape-font-specification:'Golos Bold';stroke-width:0.264583"
       d="m 84.502336,16.333887 v 2.706811 h 0.995288 c 0.9652,0 1.778211,-0.110079 2.438611,-0.330212 0.677333,-0.220133 1.227728,-0.52469 1.651062,-0.914156 0.440266,-0.4064 0.75321,-0.889174 0.939477,-1.447974 0.0017,-0.0048 0.0034,-0.0097 0.0052,-0.01447 z"
       id="path214" />
    <path
       style="font-weight:bold;font-size:25.4px;font-family:Golos;-inkscape-font-specification:'Golos Bold';stroke-width:0.264583"
       d="m 78.893892,16.333887 v 2.706811 h 5.508191 v -2.706811 z"
       id="path213" />
    <path
       style="font-weight:bold;font-size:25.4px;font-family:Golos;-inkscape-font-specification:'Golos Bold';stroke-width:0.264583"
       d="m 72.188359,16.333887 v 2.706811 h 3.911389 v -2.706811 z"
       id="path212" />
    <path
       style="font-weight:bold;font-size:25.4px;font-family:Golos;-inkscape-font-specification:'Golos Bold';stroke-width:0.264583"
       d="m 62.764644,16.333887 v 2.961059 c 0.135467,0.03387 0.322073,0.05064 0.559139,0.05064 0.254,0.01693 0.448477,0.02532 0.583944,0.02532 0.762,0 1.430863,-0.110079 2.006596,-0.330213 0.592667,-0.220133 1.083828,-0.634768 1.473295,-1.244368 0.250848,-0.392631 0.463125,-0.880155 0.636654,-1.462443 z"
       id="path211" />
    <path
       style="font-weight:bold;font-size:25.4px;font-family:Golos;-inkscape-font-specification:'Golos Bold';stroke-width:0.264583"
       d="m 57.176872,16.333887 v 2.706811 h 3.810103 v -2.706811 z"
       id="path210" />
    <path
       style="font-weight:bold;font-size:25.4px;font-family:Golos;-inkscape-font-specification:'Golos Bold';stroke-width:0.264583"
       d="m 48.032727,16.333887 v 2.706811 h 3.429248 l 1.903243,-2.706811 z"
       id="path209" />
    <path
       style="font-weight:bold;font-size:25.4px;font-family:Golos;-inkscape-font-specification:'Golos Bold';stroke-width:0.264583"
       d="m 40.049235,16.333887 v 2.706811 h 2.065507 v -2.706811 z"
       id="path208" />
    <path
       style="font-weight:bold;font-size:25.4px;font-family:Golos;-inkscape-font-specification:'Golos Bold';stroke-width:0.264583"
       d="m 38.202836,16.333887 v 2.706811 H 39.9495 v -2.706811 z"
       id="path207" />
    <path
       style="font-weight:bold;font-size:25.4px;font-family:Golos;-inkscape-font-specification:'Golos Bold';stroke-width:0.264583"
       d="m 25.973608,16.333887 v 3.019454 c 0.195492,0.01172 0.394106,0.01757 0.59583,0.01757 0.931333,0 1.770025,-0.118468 2.515092,-0.355534 0.762,-0.254 1.413569,-0.601014 1.955436,-1.04128 0.5588,-0.440267 0.999116,-0.973886 1.320849,-1.600419 0.0066,-0.01321 0.01315,-0.02652 0.01964,-0.03979 z"
       id="path206" />
    <path
       style="font-weight:bold;font-size:25.4px;font-family:Golos;-inkscape-font-specification:'Golos Bold';stroke-width:0.264583"
       d="m 20.621997,16.333887 c 0.282382,0.497848 0.62258,0.934568 1.020093,1.309997 0.6096,0.575734 1.329308,1.007662 2.159041,1.295528 0.646486,0.219806 1.337483,0.355324 2.072742,0.407211 v -3.012736 z"
       id="path205" />
    <path
       style="font-weight:bold;font-size:25.4px;font-family:Golos;-inkscape-font-specification:'Golos Bold';stroke-width:0.264583"
       d="m 28.906246,14.214636 c -0.135467,0.626534 -0.414858,1.100919 -0.838192,1.422652 -0.4064,0.3048 -0.90595,0.457337 -1.498616,0.457337 -0.208488,0 -0.407101,-0.0171 -0.59583,-0.05168 v 0.191203 h 6.454387 c 0.280572,-0.607444 0.444289,-1.280766 0.491443,-2.019515 z"
       id="path204" />
    <path
       style="font-weight:bold;font-size:25.4px;font-family:Golos;-inkscape-font-specification:'Golos Bold';stroke-width:0.264583"
       d="m 235.15464,12.211141 v 0.225826 c 0,1.134533 -0.24584,2.031942 -0.73691,2.692342 -0.42474,0.571208 -1.00786,0.895397 -1.74924,0.972551 v 0.132291 h 5.60327 c 0.13347,-0.236352 0.25445,-0.486252 0.36277,-0.749308 0.3556,-0.880533 0.5333,-1.896409 0.5333,-3.047876 v -0.225826 z"
       id="path203" />
    <path
       style="font-weight:bold;font-size:25.4px;font-family:Golos;-inkscape-font-specification:'Golos Bold';stroke-width:0.264583"
       d="m 225.45187,12.211141 v 0.225826 c 0,1.1684 0.1777,2.192664 0.5333,3.073197 0.10446,0.253682 0.22045,0.49514 0.3483,0.723987 h 6.23528 v -0.123506 c -0.0843,0.0062 -0.17063,0.0093 -0.2589,0.0093 -0.9144,0 -1.61733,-0.321849 -2.1084,-0.965315 -0.49106,-0.643467 -0.73639,-1.549264 -0.73639,-2.717664 v -0.225826 z"
       id="path202" />
    <path
       style="font-weight:bold;font-size:25.4px;font-family:Golos;-inkscape-font-specification:'Golos Bold';stroke-width:0.264583"
       d="m 217.12318,12.211141 v 1.571997 h 2.38487 v 2.451013 h 3.91139 v -4.02301 z"
       id="path201" />
    <path
       style="font-weight:bold;font-size:25.4px;font-family:Golos;-inkscape-font-specification:'Golos Bold';stroke-width:0.264583"
       d="m 210.46571,12.211141 v 4.02301 h 3.91139 v -2.451013 h 2.64635 v -1.571997 z"
       id="path200" />
    <path
       style="font-weight:bold;font-size:25.4px;font-family:Golos;-inkscape-font-specification:'Golos Bold';stroke-width:0.264583"
       d="m 202.99795,12.211141 v 3.629236 h -1.2852 v 0.393774 h 6.97477 v -0.393774 h -1.77767 v -3.629236 z"
       id="path199" />
    <path
       style="font-weight:bold;font-size:25.4px;font-family:Golos;-inkscape-font-specification:'Golos Bold';stroke-width:0.264583"
       d="m 195.55602,12.211141 v 3.629236 h -1.51618 v 0.393774 h 7.57266 v -0.393774 h -2.14509 v -3.629236 z"
       id="path198" />
    <path
       style="font-weight:bold;font-size:25.4px;font-family:Golos;-inkscape-font-specification:'Golos Bold';stroke-width:0.264583"
       d="m 188.11358,12.211141 v 4.02301 h 5.826 v -0.393774 h -1.91409 v -3.629236 z"
       id="path197" />
    <path
       style="font-weight:bold;font-size:25.4px;font-family:Golos;-inkscape-font-specification:'Golos Bold';stroke-width:0.264583"
       d="m 182.06847,12.211141 v 0.225826 c 0,1.134533 -0.24532,2.031942 -0.73639,2.692342 -0.49106,0.6604 -1.19399,0.990637 -2.10839,0.990637 -0.056,0 -0.11098,-0.0012 -0.16537,-0.0036 v 0.117822 h 6.12728 c 0.13346,-0.236352 0.25445,-0.486252 0.36276,-0.749308 0.3556,-0.880533 0.53331,-1.896409 0.53331,-3.047876 v -0.225826 z"
       id="path196" />
    <path
       style="font-weight:bold;font-size:25.4px;font-family:Golos;-inkscape-font-specification:'Golos Bold';stroke-width:0.264583"
       d="m 172.36571,12.211141 v 0.225826 c 0,1.1684 0.1777,2.192664 0.5333,3.073197 0.10445,0.253682 0.22045,0.49514 0.3483,0.723987 h 5.71076 v -0.123506 c -0.78607,-0.05745 -1.40037,-0.376294 -1.84278,-0.956014 -0.49107,-0.643467 -0.73639,-1.549264 -0.73639,-2.717664 v -0.225826 z"
       id="path195" />
    <path
       style="font-weight:bold;font-size:25.4px;font-family:Golos;-inkscape-font-specification:'Golos Bold';stroke-width:0.264583"
       d="m 166.62549,12.211141 v 4.02301 h 3.7083 v -4.02301 z"
       id="path194" />
    <path
       style="font-weight:bold;font-size:25.4px;font-family:Golos;-inkscape-font-specification:'Golos Bold';stroke-width:0.264583"
       d="m 162.819,12.211141 v 4.02301 h 1.04542 l 2.03863,-4.02301 z"
       id="path193" />
    <path
       style="font-weight:bold;font-size:25.4px;font-family:Golos;-inkscape-font-specification:'Golos Bold';stroke-width:0.264583"
       d="m 159.01613,12.211141 2.03864,4.02301 h 1.66398 v -4.02301 h -0.15968 l -0.0232,0.04806 -0.0233,-0.04806 z"
       id="path192" />
    <path
       style="font-weight:bold;font-size:25.4px;font-family:Golos;-inkscape-font-specification:'Golos Bold';stroke-width:0.264583"
       d="m 154.58591,12.211141 v 4.02301 h 3.7083 v -4.02301 z"
       id="path191" />
    <path
       style="font-weight:bold;font-size:25.4px;font-family:Golos;-inkscape-font-specification:'Golos Bold';stroke-width:0.264583"
       d="m 138.47734,12.211141 v 1.597318 h 7.85326 v -1.597318 z"
       id="path190" />
    <path
       style="font-weight:bold;font-size:25.4px;font-family:Golos;-inkscape-font-specification:'Golos Bold';stroke-width:0.264583"
       d="m 129.05879,12.211141 v 1.597318 h 9.31829 v -1.597318 z"
       id="path189" />
    <path
       style="font-weight:bold;font-size:25.4px;font-family:Golos;-inkscape-font-specification:'Golos Bold';stroke-width:0.264583"
       d="m 117.29827,12.211141 v 0.225826 c 0,1.134533 -0.24533,2.031942 -0.73639,2.692342 -0.47096,0.633356 -1.13695,0.963148 -1.9973,0.989087 v 0.115755 h 5.85081 c 0.13347,-0.236352 0.25445,-0.486252 0.36277,-0.749308 0.3556,-0.880533 0.53382,-1.896409 0.53382,-3.047876 v -0.225826 z"
       id="path188" />
    <path
       style="font-weight:bold;font-size:25.4px;font-family:Golos;-inkscape-font-specification:'Golos Bold';stroke-width:0.264583"
       d="m 107.5955,12.211141 v 0.225826 c 0,1.1684 0.17822,2.192664 0.53382,3.073197 0.10445,0.253682 0.22051,0.49514 0.3483,0.723987 h 5.98723 v -0.114205 c -0.004,1.1e-5 -0.008,0 -0.0114,0 -0.9144,0 -1.61682,-0.321849 -2.10788,-0.965315 -0.49107,-0.643467 -0.73691,-1.549264 -0.73691,-2.717664 v -0.225826 z"
       id="path187" />
    <path
       style="font-weight:bold;font-size:25.4px;font-family:Golos;-inkscape-font-specification:'Golos Bold';stroke-width:0.264583"
       d="m 99.319002,12.211141 v 1.571997 h 2.333188 v 2.451013 h 3.91139 v -4.02301 z"
       id="path186" />
    <path
       style="font-weight:bold;font-size:25.4px;font-family:Golos;-inkscape-font-specification:'Golos Bold';stroke-width:0.264583"
       d="m 92.609851,12.211141 v 4.02301 h 3.911389 v -2.451013 h 2.69751 v -1.571997 z"
       id="path185" />
    <path
       style="font-weight:bold;font-size:25.4px;font-family:Golos;-inkscape-font-specification:'Golos Bold';stroke-width:0.264583"
       d="m 84.502336,12.211141 v 0.682646 h 0.487308 c 0.694267,0 1.185429,0.127372 1.473295,0.381372 0.3048,0.254 0.457337,0.660247 0.457337,1.219047 0,0.541866 -0.152537,0.948113 -0.457337,1.219047 -0.287866,0.254 -0.779028,0.381372 -1.473295,0.381372 h -0.487308 v 0.139526 h 6.064229 c 0.176608,-0.52842 0.2651,-1.108504 0.2651,-1.739945 0,-0.895416 -0.151712,-1.656383 -0.454753,-2.283065 z"
       id="path184" />
    <path
       style="font-weight:bold;font-size:25.4px;font-family:Golos;-inkscape-font-specification:'Golos Bold';stroke-width:0.264583"
       d="m 78.893892,12.211141 v 4.02301 h 5.508191 v -0.139526 h -1.596801 v -3.200838 h 1.596801 v -0.682646 z"
       id="path183" />
    <path
       style="font-weight:bold;font-size:25.4px;font-family:Golos;-inkscape-font-specification:'Golos Bold';stroke-width:0.264583"
       d="m 72.188359,12.211141 v 4.02301 h 3.911389 v -4.02301 z"
       id="path182" />
    <path
       style="font-weight:bold;font-size:25.4px;font-family:Golos;-inkscape-font-specification:'Golos Bold';stroke-width:0.264583"
       d="m 64.881311,12.211141 c -0.02064,0.339351 -0.04909,0.651613 -0.08475,0.936894 -0.06773,0.6604 -0.177813,1.202407 -0.330213,1.62574 -0.1524,0.4064 -0.338489,0.702568 -0.558622,0.888835 -0.220133,0.169333 -0.474361,0.253731 -0.762227,0.253731 -0.169334,0 -0.296189,-0.0084 -0.380856,-0.02532 v 0.343131 h 5.288566 c 0.08388,-0.29408 0.158343,-0.611675 0.223243,-0.952396 0.159282,-0.836232 0.255995,-1.859814 0.290421,-3.070614 z"
       id="path181" />
    <path
       style="font-weight:bold;font-size:25.4px;font-family:Golos;-inkscape-font-specification:'Golos Bold';stroke-width:0.264583"
       d="m 57.176872,12.211141 v 4.02301 h 3.810103 v -4.02301 z"
       id="path180" />
    <path
       style="font-weight:bold;font-size:25.4px;font-family:Golos;-inkscape-font-specification:'Golos Bold';stroke-width:0.264583"
       d="m 54.25767,12.211141 v 2.853573 l 2.006596,-2.853573 z"
       id="path179" />
    <path
       style="font-weight:bold;font-size:25.4px;font-family:Golos;-inkscape-font-specification:'Golos Bold';stroke-width:0.264583"
       d="m 48.032727,12.211141 v 4.02301 h 5.402771 l 0.722437,-1.027327 v -2.995683 h -1.263489 l -1.051616,1.495516 v -1.495516 z"
       id="path178" />
    <path
       style="font-weight:bold;font-size:25.4px;font-family:Golos;-inkscape-font-specification:'Golos Bold';stroke-width:0.264583"
       d="m 40.049235,12.211141 v 4.02301 h 2.065507 v -4.02301 z"
       id="path177" />
    <path
       style="font-weight:bold;font-size:25.4px;font-family:Golos;-inkscape-font-specification:'Golos Bold';stroke-width:0.264583"
       d="m 38.202836,12.211141 v 4.02301 H 39.9495 v -4.02301 z"
       id="path176" />
    <path
       style="font-weight:bold;font-size:25.4px;font-family:Golos;-inkscape-font-specification:'Golos Bold';stroke-width:0.264583"
       d="m 19.711458,12.211141 v 0.225826 c 0,1.1684 0.169313,2.184276 0.50798,3.047876 0.103159,0.263056 0.218935,0.512956 0.347265,0.749308 h 5.30717 v -0.211356 c -0.54894,-0.120735 -1.011383,-0.393443 -1.386996,-0.817522 -0.508,-0.592666 -0.762227,-1.515239 -0.762227,-2.768306 v -0.225826 z"
       id="path175" />
    <path
       style="font-weight:bold;font-size:25.4px;font-family:Golos;-inkscape-font-specification:'Golos Bold';stroke-width:0.264583"
       d="m 162.71875,11.876794 -0.11214,0.234095 h 0.11214 z"
       id="path174" />
    <path
       style="font-weight:bold;font-size:25.4px;font-family:Golos;-inkscape-font-specification:'Golos Bold';stroke-width:0.264583"
       d="m 54.157935,10.413835 -1.193209,1.697054 h 1.193209 z"
       id="path173" />
    <path
       style="font-weight:bold;font-size:25.4px;font-family:Golos;-inkscape-font-specification:'Golos Bold';stroke-width:0.264583"
       d="m 138.47734,10.048999 v 2.06189 h 7.85326 v -2.06189 z"
       id="path172" />
    <path
       style="font-weight:bold;font-size:25.4px;font-family:Golos;-inkscape-font-specification:'Golos Bold';stroke-width:0.264583"
       d="m 129.05879,10.048999 v 2.06189 h 9.31829 v -2.06189 z"
       id="path171" />
    <path
       style="font-weight:bold;font-size:25.4px;font-family:Golos;-inkscape-font-specification:'Golos Bold';stroke-width:0.264583"
       d="m 84.502336,9.9477132 v 2.1631758 h 5.82445 C 90.113749,11.702474 89.833392,11.353779 89.485494,11.064958 88.588027,10.319891 87.25869,9.9477132 85.497624,9.9477132 Z"
       id="path170" />
    <path
       style="font-weight:bold;font-size:25.4px;font-family:Golos;-inkscape-font-specification:'Golos Bold';stroke-width:0.264583"
       d="m 233.14081,8.6036092 c 0.52125,0.1418269 0.94685,0.4289269 1.27692,0.8614461 0.49107,0.6265337 0.73691,1.4479327 0.73691,2.4639327 v 0.181901 h 4.01319 v -0.181901 c 0,-1.100666 -0.1777,-2.066214 -0.5333,-2.8959476 -0.0632,-0.1474655 -0.13081,-0.2905361 -0.20257,-0.4294312 z"
       id="path169" />
    <path
       style="font-weight:bold;font-size:25.4px;font-family:Golos;-inkscape-font-specification:'Golos Bold';stroke-width:0.264583"
       d="m 226.18774,8.6036092 c -0.0718,0.1388951 -0.13937,0.2819657 -0.20257,0.4294312 -0.3556,0.8297336 -0.5333,1.7952816 -0.5333,2.8959476 v 0.181901 h 4.01319 v -0.181901 c 0,-1.016 0.24533,-1.837399 0.73639,-2.4639327 0.33009,-0.4325192 0.75604,-0.7196192 1.27744,-0.8614461 z"
       id="path168" />
    <path
       style="font-weight:bold;font-size:25.4px;font-family:Golos;-inkscape-font-specification:'Golos Bold';stroke-width:0.264583"
       d="m 219.50805,8.6036092 v 1.9792078 h -2.38487 v 1.528072 h 6.29626 V 8.6036092 Z"
       id="path167" />
    <path
       style="font-weight:bold;font-size:25.4px;font-family:Golos;-inkscape-font-specification:'Golos Bold';stroke-width:0.264583"
       d="m 210.46571,8.6036092 v 3.5072798 h 6.55774 V 10.582817 H 214.3771 V 8.6036092 Z"
       id="path166" />
    <path
       style="font-weight:bold;font-size:25.4px;font-family:Golos;-inkscape-font-specification:'Golos Bold';stroke-width:0.264583"
       d="m 202.99795,8.6036092 v 3.5072798 h 3.9119 V 8.6036092 Z"
       id="path165" />
    <path
       style="font-weight:bold;font-size:25.4px;font-family:Golos;-inkscape-font-specification:'Golos Bold';stroke-width:0.264583"
       d="m 195.55602,8.6036092 v 3.5072798 h 3.91139 V 8.6036092 Z"
       id="path164" />
    <path
       style="font-weight:bold;font-size:25.4px;font-family:Golos;-inkscape-font-specification:'Golos Bold';stroke-width:0.264583"
       d="m 188.11358,8.6036092 v 3.5072798 h 3.91191 V 8.6036092 Z"
       id="path163" />
    <path
       style="font-weight:bold;font-size:25.4px;font-family:Golos;-inkscape-font-specification:'Golos Bold';stroke-width:0.264583"
       d="m 180.05464,8.6036092 c 0.52141,0.1418269 0.94737,0.4289269 1.27744,0.8614461 0.49107,0.6265337 0.73639,1.4479327 0.73639,2.4639327 v 0.181901 h 4.0132 v -0.181901 c 0,-1.100666 -0.17771,-2.066214 -0.53331,-2.8959476 -0.0632,-0.1474655 -0.13081,-0.2905361 -0.20257,-0.4294312 z"
       id="path162" />
    <path
       style="font-weight:bold;font-size:25.4px;font-family:Golos;-inkscape-font-specification:'Golos Bold';stroke-width:0.264583"
       d="m 173.10158,8.6036092 c -0.0718,0.1388951 -0.13937,0.2819657 -0.20257,0.4294312 -0.3556,0.8297336 -0.5333,1.7952816 -0.5333,2.8959476 v 0.181901 h 4.01319 v -0.181901 c 0,-1.016 0.24532,-1.837399 0.73639,-2.4639327 0.33007,-0.4325192 0.75603,-0.7196192 1.27744,-0.8614461 z"
       id="path161" />
    <path
       style="font-weight:bold;font-size:25.4px;font-family:Golos;-inkscape-font-specification:'Golos Bold';stroke-width:0.264583"
       d="M 164.28713,8.6036092 162.819,11.667505 v 0.443384 h 3.13521 l 0.67128,-1.324984 v 1.324984 h 3.7083 V 8.6036092 Z"
       id="path160" />
    <path
       style="font-weight:bold;font-size:25.4px;font-family:Golos;-inkscape-font-specification:'Golos Bold';stroke-width:0.264583"
       d="m 154.58591,8.6036092 v 3.5072798 h 3.7083 v -1.324984 l 0.67128,1.324984 h 3.49953 L 160.7845,8.6036092 Z"
       id="path159" />
    <path
       style="font-weight:bold;font-size:25.4px;font-family:Golos;-inkscape-font-specification:'Golos Bold';stroke-width:0.264583"
       d="m 115.28444,8.6036092 c 0.5214,0.1418269 0.94735,0.4289269 1.27744,0.8614461 0.49106,0.6265337 0.73639,1.4479327 0.73639,2.4639327 v 0.181901 h 4.01371 v -0.181901 c 0,-1.100666 -0.17822,-2.066214 -0.53382,-2.8959476 -0.0632,-0.1474655 -0.13081,-0.2905361 -0.20257,-0.4294312 z"
       id="path158" />
    <path
       style="font-weight:bold;font-size:25.4px;font-family:Golos;-inkscape-font-specification:'Golos Bold';stroke-width:0.264583"
       d="m 108.33189,8.6036092 c -0.0717,0.1388951 -0.13937,0.2819657 -0.20257,0.4294312 -0.3556,0.8297336 -0.53382,1.7952816 -0.53382,2.8959476 v 0.181901 h 4.01319 v -0.181901 c 0,-1.016 0.24584,-1.837399 0.73691,-2.4639327 0.33007,-0.4325192 0.75567,-0.7196192 1.27692,-0.8614461 z"
       id="path157" />
    <path
       style="font-weight:bold;font-size:25.4px;font-family:Golos;-inkscape-font-specification:'Golos Bold';stroke-width:0.264583"
       d="m 101.65219,8.6036092 v 1.9792078 h -2.333188 v 1.528072 h 6.244578 V 8.6036092 Z"
       id="path156" />
    <path
       style="font-weight:bold;font-size:25.4px;font-family:Golos;-inkscape-font-specification:'Golos Bold';stroke-width:0.264583"
       d="M 92.609851,8.6036092 V 12.110889 H 99.21875 V 10.582817 H 96.52124 V 8.6036092 Z"
       id="path155" />
    <path
       style="font-weight:bold;font-size:25.4px;font-family:Golos;-inkscape-font-specification:'Golos Bold';stroke-width:0.264583"
       d="m 78.893892,8.6036092 v 3.5072798 h 5.508191 V 9.9477132 h -1.596801 v -1.344104 z"
       id="path154" />
    <path
       style="font-weight:bold;font-size:25.4px;font-family:Golos;-inkscape-font-specification:'Golos Bold';stroke-width:0.264583"
       d="m 70.51921,8.6036092 v 0.1756999 h 1.669149 v 3.3315799 h 3.911389 V 8.6036092 Z"
       id="path153" />
    <path
       style="font-weight:bold;font-size:25.4px;font-family:Golos;-inkscape-font-specification:'Golos Bold';stroke-width:0.264583"
       d="m 64.923686,8.6036092 v 2.0551718 c 0,0.528157 -0.01221,1.012096 -0.03669,1.452108 h 3.68298 c 0.0077,-0.303204 0.01137,-0.61783 0.01137,-0.944129 V 8.7793091 h 1.837614 V 8.6036092 Z"
       id="path152" />
    <path
       style="font-weight:bold;font-size:25.4px;font-family:Golos;-inkscape-font-specification:'Golos Bold';stroke-width:0.264583"
       d="M 55.430725,8.6036092 54.25767,10.272241 v 1.838648 h 2.076876 l 0.842326,-1.19786 v 1.19786 h 3.810103 V 8.6036092 Z"
       id="path151" />
    <path
       style="font-weight:bold;font-size:25.4px;font-family:Golos;-inkscape-font-specification:'Golos Bold';stroke-width:0.264583"
       d="M 48.032727,8.6036092 V 12.110889 H 51.84283 V 8.6036092 Z"
       id="path150" />
    <path
       style="font-weight:bold;font-size:25.4px;font-family:Golos;-inkscape-font-specification:'Golos Bold';stroke-width:0.264583"
       d="m 40.049235,8.6036092 v 3.5072798 h 2.065507 V 8.7793091 h 4.139799 V 8.6036092 Z"
       id="path149" />
    <path
       style="font-weight:bold;font-size:25.4px;font-family:Golos;-inkscape-font-specification:'Golos Bold';stroke-width:0.264583"
       d="m 34.06252,8.6036092 v 0.1756999 h 4.140316 V 12.110889 H 39.9495 V 8.6036092 Z"
       id="path148" />
    <path
       style="font-weight:bold;font-size:25.4px;font-family:Golos;-inkscape-font-specification:'Golos Bold';stroke-width:0.264583"
       d="m 27.407113,8.6036092 c 0.296678,0.08388 0.542541,0.2185084 0.737422,0.4041097 0.372534,0.3217333 0.626244,0.787724 0.761711,1.3973311 h 4.013192 C 32.874153,9.7710513 32.734529,9.1704077 32.500859,8.6036092 Z"
       id="path147" />
    <path
       style="font-weight:bold;font-size:25.4px;font-family:Golos;-inkscape-font-specification:'Golos Bold';stroke-width:0.264583"
       d="m 20.482471,8.6036092 c -0.08378,0.1548437 -0.162835,0.31497 -0.237195,0.4805908 -0.3556,0.8297337 -0.533818,1.777988 -0.533818,2.844788 v 0.181901 h 4.013192 v -0.181901 c 0,-1.151466 0.262616,-2.0069349 0.787549,-2.5657352 0.35402,-0.376146 0.769589,-0.6292721 1.246435,-0.7596436 z"
       id="path146" />
    <path
       style="font-weight:bold;font-size:25.4px;font-family:Golos;-inkscape-font-specification:'Golos Bold';stroke-width:0.264583"
       d="m 219.50805,5.5789876 v 2.9243693 h 3.91139 V 5.5789876 Z"
       id="path145" />
    <path
       style="font-weight:bold;font-size:25.4px;font-family:Golos;-inkscape-font-specification:'Golos Bold';stroke-width:0.264583"
       d="m 210.46571,5.5789876 v 2.9243693 h 3.91139 V 5.5789876 Z"
       id="path144" />
    <path
       style="font-weight:bold;font-size:25.4px;font-family:Golos;-inkscape-font-specification:'Golos Bold';stroke-width:0.264583"
       d="m 202.99795,5.5789876 v 2.9243693 h 3.9119 V 5.5789876 Z"
       id="path143" />
    <path
       style="font-weight:bold;font-size:25.4px;font-family:Golos;-inkscape-font-specification:'Golos Bold';stroke-width:0.264583"
       d="m 195.55602,5.5789876 v 2.9243693 h 3.91139 V 5.5789876 Z"
       id="path142" />
    <path
       style="font-weight:bold;font-size:25.4px;font-family:Golos;-inkscape-font-specification:'Golos Bold';stroke-width:0.264583"
       d="m 188.11358,5.5789876 v 2.9243693 h 3.91191 V 5.5789876 Z"
       id="path141" />
    <path
       style="font-weight:bold;font-size:25.4px;font-family:Golos;-inkscape-font-specification:'Golos Bold';stroke-width:0.264583"
       d="m 165.73614,5.5789876 -1.40095,2.9243693 h 5.9986 V 5.5789876 Z"
       id="path140" />
    <path
       style="font-weight:bold;font-size:25.4px;font-family:Golos;-inkscape-font-specification:'Golos Bold';stroke-width:0.264583"
       d="m 154.58591,5.5789876 v 2.9243693 h 6.15053 l -1.40095,-2.9243693 z"
       id="path139" />
    <path
       style="font-weight:bold;font-size:25.4px;font-family:Golos;-inkscape-font-specification:'Golos Bold';stroke-width:0.264583"
       d="m 101.65219,5.5789876 v 2.9243693 h 3.91139 V 5.5789876 Z"
       id="path138" />
    <path
       style="font-weight:bold;font-size:25.4px;font-family:Golos;-inkscape-font-specification:'Golos Bold';stroke-width:0.264583"
       d="M 92.609851,5.5789876 V 8.5033569 H 96.52124 V 5.5789876 Z"
       id="path137" />
    <path
       style="font-weight:bold;font-size:25.4px;font-family:Golos;-inkscape-font-specification:'Golos Bold';stroke-width:0.264583"
       d="m 78.893892,5.5789876 v 2.9243693 h 3.91139 V 5.5789876 Z"
       id="path136" />
    <path
       style="font-weight:bold;font-size:25.4px;font-family:Golos;-inkscape-font-specification:'Golos Bold';stroke-width:0.264583"
       d="m 70.51921,5.5789876 v 2.9243693 h 5.580538 V 5.5789876 Z"
       id="path135" />
    <path
       style="font-weight:bold;font-size:25.4px;font-family:Golos;-inkscape-font-specification:'Golos Bold';stroke-width:0.264583"
       d="m 64.923686,5.5789876 v 2.9243693 h 5.495272 V 5.5789876 Z"
       id="path134" />
    <path
       style="font-weight:bold;font-size:25.4px;font-family:Golos;-inkscape-font-specification:'Golos Bold';stroke-width:0.264583"
       d="m 57.557727,5.5789876 -2.056205,2.9243693 h 5.485453 V 5.5789876 Z"
       id="path133" />
    <path
       style="font-weight:bold;font-size:25.4px;font-family:Golos;-inkscape-font-specification:'Golos Bold';stroke-width:0.264583"
       d="M 48.032727,5.5789876 V 8.5033569 H 51.84283 V 5.5789876 Z"
       id="path132" />
    <path
       style="font-weight:bold;font-size:25.4px;font-family:Golos;-inkscape-font-specification:'Golos Bold';stroke-width:0.264583"
       d="m 40.049235,5.5789876 v 2.9243693 h 6.205306 V 5.5789876 Z"
       id="path131" />
    <path
       style="font-weight:bold;font-size:25.4px;font-family:Golos;-inkscape-font-specification:'Golos Bold';stroke-width:0.264583"
       d="M 34.06252,5.5789876 V 8.5033569 H 39.9495 V 5.5789876 Z"
       id="path130" />
    <path
       style="font-weight:bold;font-size:25.4px;font-family:Golos;-inkscape-font-specification:'Golos Bold';stroke-width:0.264583"
       d="m 25.873873,5.2771973 c -0.690368,0.056811 -1.347378,0.1993342 -1.970939,0.4283976 -0.829734,0.2878667 -1.558346,0.7197948 -2.18488,1.2955281 -0.461526,0.4230653 -0.854767,0.9237941 -1.18029,1.5022339 h 5.336109 z"
       id="path129" />
    <path
       style="font-weight:bold;font-size:25.4px;font-family:Golos;-inkscape-font-specification:'Golos Bold';stroke-width:0.264583"
       d="m 232.66849,5.2554932 v 3.2478637 h 5.71076 c -0.32374,-0.5999495 -0.72975,-1.1174034 -1.21802,-1.5528768 -0.62653,-0.5588 -1.35462,-0.98234 -2.18436,-1.2702067 -0.72421,-0.2512595 -1.49386,-0.3928868 -2.30838,-0.4247802 z"
       id="path128" />
    <path
       style="font-weight:bold;font-size:25.4px;font-family:Golos;-inkscape-font-specification:'Golos Bold';stroke-width:0.264583"
       d="m 178.95807,5.2523926 c -0.84916,0.024443 -1.64958,0.1670418 -2.4014,0.4278808 -0.82974,0.2878667 -1.55783,0.7114067 -2.18437,1.2702067 -0.48825,0.4354734 -0.89427,0.9529273 -1.21801,1.5528768 h 5.80378 z"
       id="path127" />
    <path
       style="font-weight:bold;font-size:25.4px;font-family:Golos;-inkscape-font-specification:'Golos Bold';stroke-width:0.264583"
       d="m 114.56458,5.249292 v 3.2519979 c 0.0193,5.441e-4 0.0388,0.0012 0.0579,0.00207 h 5.90042 c -0.32375,-0.5999495 -0.72975,-1.1174034 -1.21802,-1.5528768 -0.62653,-0.5588 -1.35463,-0.98234 -2.18436,-1.2702067 -0.7972,-0.2765793 -1.64929,-0.4201585 -2.55592,-0.4309814 z"
       id="path126" />
    <path
       style="font-weight:bold;font-size:25.4px;font-family:Golos;-inkscape-font-specification:'Golos Bold';stroke-width:0.264583"
       d="m 232.30985,5.2487752 c -0.94827,0 -1.83729,0.1436316 -2.66702,0.4314982 -0.82973,0.2878667 -1.55783,0.7114067 -2.18436,1.2702067 -0.48827,0.4354734 -0.89427,0.9529273 -1.21802,1.5528768 h 5.90042 c 0.0554,-0.00251 0.11191,-0.00362 0.16898,-0.00362 0.0571,0 0.11356,0.00111 0.16898,0.00362 h 0.0899 V 5.2523926 c -0.0858,-0.00241 -0.17211,-0.00362 -0.2589,-0.00362 z"
       id="path125" />
    <path
       style="font-weight:bold;font-size:25.4px;font-family:Golos;-inkscape-font-specification:'Golos Bold';stroke-width:0.264583"
       d="m 179.22369,5.2487752 c -0.0554,0 -0.11039,5.705e-4 -0.16537,0.00155 v 3.2530314 c 0.0543,-0.0024 0.10947,-0.00362 0.16537,-0.00362 0.0571,0 0.11355,0.00111 0.16898,0.00362 h 5.90041 c -0.32374,-0.5999495 -0.72976,-1.1174034 -1.21801,-1.5528768 -0.62653,-0.5588 -1.35463,-0.98234 -2.18436,-1.2702067 -0.82974,-0.2878666 -1.71876,-0.4314982 -2.66702,-0.4314982 z"
       id="path124" />
    <path
       style="font-weight:bold;font-size:25.4px;font-family:Golos;-inkscape-font-specification:'Golos Bold';stroke-width:0.264583"
       d="m 114.45348,5.2487752 c -0.94827,0 -1.83677,0.1436316 -2.6665,0.4314982 -0.82974,0.2878667 -1.55835,0.7114067 -2.18488,1.2702067 -0.48827,0.4354734 -0.8939,0.9529273 -1.2175,1.5528768 h 5.8999 c 0.0554,-0.00251 0.11191,-0.00362 0.16898,-0.00362 0.004,0 0.008,-9.7e-6 0.0114,0 V 5.2487752 c -0.004,-4.5e-6 -0.008,0 -0.0114,0 z"
       id="path123" />
    <path
       style="font-weight:bold;font-size:25.4px;font-family:Golos;-inkscape-font-specification:'Golos Bold';stroke-width:0.264583"
       d="m 26.569438,5.2487752 c -0.201297,0 -0.399909,0.00696 -0.59583,0.020671 v 3.2339111 h 0.433566 c 0.05351,-0.00251 0.107497,-0.00362 0.162264,-0.00362 0.05974,0 0.11846,0.00111 0.1757,0.00362 h 5.713346 C 32.44312,8.468035 32.427564,8.4329909 32.411458,8.397937 32.123592,7.7714037 31.717345,7.2299131 31.192411,6.7727132 30.667478,6.2985799 30.015392,5.9258853 29.236458,5.654952 c -0.762,-0.2709333 -1.65102,-0.4061768 -2.66702,-0.4061768 z"
       id="text1" />
  </g>
</svg>
