<svg width="854" height="81" viewBox="0 0 854 81" fill="none" xmlns="http://www.w3.org/2000/svg">
<path d="M37.3441 68.4453V41.6613C35.6801 42.7493 33.4721 43.7413 30.7201 44.6373C28.0321 45.4693 24.8321 45.8853 21.1201 45.8853C14.1441 45.8853 8.86405 44.1573 5.28005 40.7013C1.76005 37.1813 5.38826e-05 31.5493 5.38826e-05 23.8053V1.24531H17.2801V20.9253C17.2801 24.7013 18.0801 27.4213 19.6801 29.0853C21.2801 30.6853 23.5201 31.4853 26.4001 31.4853C29.0241 31.4853 31.2321 31.1973 33.0241 30.6213C34.8161 29.9813 36.2561 29.3093 37.3441 28.6053V1.24531H54.7201V68.4453H37.3441ZM68.5988 68.4453V1.24531H117.559V14.4933H85.8788V27.6453H114.679V40.1253H85.8788V55.1973H117.559V68.4453H68.5988ZM146.7 68.4453V15.4533H126.06V1.24531H184.62V15.4533H163.98V68.4453H146.7ZM193.778 68.4453V1.24531H211.058V27.8373H215.858L236.402 1.24531H255.218L229.298 32.6373L256.178 68.4453H236.018L215.858 39.9333H211.058V68.4453H193.778ZM294.248 69.6933C289.832 69.6933 285.64 69.0533 281.672 67.7733C277.768 66.4933 274.312 64.4773 271.304 61.7253C268.296 58.9733 265.928 55.4213 264.2 51.0693C262.472 46.6533 261.608 41.4053 261.608 35.3253V33.4053C261.608 27.5173 262.472 22.4613 264.2 18.2373C265.928 14.0133 268.296 10.5573 271.304 7.86931C274.312 5.18131 277.768 3.19731 281.672 1.91731C285.64 0.637308 289.832 -0.00269318 294.248 -0.00269318C298.728 -0.00269318 302.92 0.637308 306.824 1.91731C310.728 3.19731 314.184 5.18131 317.192 7.86931C320.2 10.5573 322.568 14.0133 324.296 18.2373C326.024 22.4613 326.888 27.5173 326.888 33.4053V35.3253C326.888 41.4053 326.024 46.6533 324.296 51.0693C322.568 55.4213 320.2 58.9733 317.192 61.7253C314.184 64.4773 310.728 66.4933 306.824 67.7733C302.92 69.0533 298.728 69.6933 294.248 69.6933ZM294.152 55.2933C296.776 55.2933 299.208 54.7173 301.448 53.5653C303.688 52.3493 305.48 50.3333 306.824 47.5173C308.232 44.6373 308.936 40.5733 308.936 35.3253V33.4053C308.936 28.4133 308.232 24.5413 306.824 21.7893C305.48 19.0373 303.688 17.1173 301.448 16.0293C299.208 14.9413 296.776 14.3973 294.152 14.3973C291.656 14.3973 289.288 14.9413 287.048 16.0293C284.808 17.1173 282.984 19.0373 281.576 21.7893C280.168 24.5413 279.464 28.4133 279.464 33.4053V35.3253C279.464 40.5733 280.168 44.6373 281.576 47.5173C282.984 50.3333 284.808 52.3493 287.048 53.5653C289.288 54.7173 291.656 55.2933 294.152 55.2933ZM358.523 48.6693V34.4613H423.803V48.6693H358.523ZM452.648 80.9253V54.2373H460.328C461.16 52.1253 461.832 49.6613 462.344 46.8453C462.92 43.9653 463.368 40.8933 463.688 37.6293C464.008 34.3653 464.232 31.0373 464.36 27.6453C464.552 24.1893 464.648 20.8293 464.648 17.5653V1.24531H513.992V54.2373H520.808V80.9253H505.832V68.4453H467.624V80.9253H452.648ZM476.936 54.2373H496.712V15.4533H480.776V19.4853C480.776 27.2933 480.456 34.0453 479.816 39.7413C479.24 45.3733 478.28 50.2053 476.936 54.2373ZM530.408 68.4453V1.24531H579.368V14.4933H547.688V27.6453H576.488V40.1253H547.688V55.1973H579.368V68.4453H530.408ZM590.794 68.4453V1.24531H618.154C624.426 1.24531 629.578 2.17331 633.61 4.02931C637.642 5.82131 640.618 8.44531 642.538 11.9013C644.522 15.2933 645.514 19.3893 645.514 24.1893C645.514 28.9253 644.522 33.0213 642.538 36.4773C640.618 39.9333 637.642 42.5893 633.61 44.4453C629.578 46.2373 624.426 47.1333 618.154 47.1333H608.074V68.4453H590.794ZM608.074 32.9253H616.234C620.65 32.9253 623.754 32.1893 625.546 30.7173C627.338 29.2453 628.234 27.0693 628.234 24.1893C628.234 21.3093 627.338 19.1333 625.546 17.6613C623.754 16.1893 620.65 15.4533 616.234 15.4533H608.074V32.9253ZM681.026 69.6933C674.754 69.6933 669.506 68.7653 665.282 66.9093C661.058 65.0533 657.858 62.3973 655.682 58.9413C653.57 55.4213 652.418 51.2293 652.226 46.3653H670.082C670.274 48.4133 670.722 50.1733 671.426 51.6453C672.194 53.1173 673.346 54.2693 674.882 55.1013C676.418 55.8693 678.466 56.2533 681.026 56.2533C684.866 56.2533 687.65 55.5493 689.378 54.1413C691.106 52.7333 691.97 50.7493 691.97 48.1893C691.97 46.5253 691.65 45.0533 691.01 43.7733C690.37 42.4933 689.186 41.5013 687.458 40.7973C685.73 40.0933 683.266 39.7413 680.066 39.7413H673.922V28.0293H680.066C683.65 28.0293 686.114 27.2613 687.458 25.7253C688.866 24.1893 689.57 22.4613 689.57 20.5413C689.57 18.6213 688.994 16.9573 687.842 15.5493C686.69 14.1413 684.418 13.4373 681.026 13.4373C678.978 13.4373 677.282 13.7573 675.938 14.3973C674.594 14.9733 673.538 15.9013 672.77 17.1813C672.066 18.3973 671.65 19.9653 671.522 21.8853H653.666C653.922 14.4613 656.258 8.95731 660.674 5.37331C665.09 1.78931 671.874 -0.00269318 681.026 -0.00269318C690.178 -0.00269318 696.866 1.62931 701.09 4.89331C705.314 8.09331 707.426 12.8293 707.426 19.1013C707.426 22.6213 706.53 25.6293 704.738 28.1253C703.01 30.5573 700.514 32.3173 697.25 33.4053C701.346 34.3653 704.45 36.2213 706.562 38.9733C708.738 41.6613 709.826 45.1813 709.826 49.5333C709.826 53.5013 708.77 57.0213 706.658 60.0933C704.61 63.1013 701.474 65.4693 697.25 67.1973C693.026 68.8613 687.618 69.6933 681.026 69.6933ZM720.191 68.4453V1.24531H737.471V27.8373H742.271L762.815 1.24531H781.631L755.711 32.6373L782.591 68.4453H762.431L742.271 39.9333H737.471V68.4453H720.191ZM820.661 69.6933C816.245 69.6933 812.053 69.0533 808.085 67.7733C804.181 66.4933 800.725 64.4773 797.717 61.7253C794.709 58.9733 792.341 55.4213 790.613 51.0693C788.885 46.6533 788.021 41.4053 788.021 35.3253V33.4053C788.021 27.5173 788.885 22.4613 790.613 18.2373C792.341 14.0133 794.709 10.5573 797.717 7.86931C800.725 5.18131 804.181 3.19731 808.085 1.91731C812.053 0.637308 816.245 -0.00269318 820.661 -0.00269318C825.141 -0.00269318 829.333 0.637308 833.237 1.91731C837.141 3.19731 840.597 5.18131 843.605 7.86931C846.613 10.5573 848.981 14.0133 850.709 18.2373C852.437 22.4613 853.301 27.5173 853.301 33.4053V35.3253C853.301 41.4053 852.437 46.6533 850.709 51.0693C848.981 55.4213 846.613 58.9733 843.605 61.7253C840.597 64.4773 837.141 66.4933 833.237 67.7733C829.333 69.0533 825.141 69.6933 820.661 69.6933ZM820.565 55.2933C823.189 55.2933 825.621 54.7173 827.861 53.5653C830.101 52.3493 831.893 50.3333 833.237 47.5173C834.645 44.6373 835.349 40.5733 835.349 35.3253V33.4053C835.349 28.4133 834.645 24.5413 833.237 21.7893C831.893 19.0373 830.101 17.1173 827.861 16.0293C825.621 14.9413 823.189 14.3973 820.565 14.3973C818.069 14.3973 815.701 14.9413 813.461 16.0293C811.221 17.1173 809.397 19.0373 807.989 21.7893C806.581 24.5413 805.877 28.4133 805.877 33.4053V35.3253C805.877 40.5733 806.581 44.6373 807.989 47.5173C809.397 50.3333 811.221 52.3493 813.461 53.5653C815.701 54.7173 818.069 55.2933 820.565 55.2933Z" fill="#242424"/>
</svg>
